<?xml version="1.0" encoding="UTF-8"?>
<svg xmlns="http://www.w3.org/2000/svg" xmlns:xlink="http://www.w3.org/1999/xlink" width="200px" height="80px" viewBox="0 0 200 80" version="1.1">
<g id="surface1">
<path style=" stroke:none;fill-rule:evenodd;fill:rgb(51.764706%,73.72549%,80%);fill-opacity:1;" d="M 35.042969 0.125 C 30.757812 0.515625 26.371094 1.660156 22.875 3.292969 C 22.417969 3.507812 21.761719 3.8125 21.417969 3.972656 C 20.765625 4.277344 18.960938 5.265625 18.359375 5.652344 C 16.054688 7.132812 14.226562 8.511719 12.75 9.886719 C 12.542969 10.078125 12.261719 10.339844 12.125 10.460938 C 11.570312 10.964844 10.613281 11.90625 10.425781 12.132812 C 10.316406 12.265625 10.039062 12.582031 9.808594 12.832031 C 9.011719 13.714844 8.863281 13.878906 8.488281 14.332031 C 8.015625 14.90625 6.742188 16.683594 6.25 17.457031 C 6.046875 17.777344 5.855469 18.058594 5.828125 18.082031 C 5.589844 18.285156 4.308594 20.664062 3.628906 22.167969 C 3.328125 22.832031 3.027344 23.46875 2.96875 23.582031 C 2.410156 24.609375 1.402344 27.785156 0.875 30.160156 C -0.851562 37.996094 0.0585938 47.703125 3.125 54.125 C 4.203125 56.382812 4.878906 57.722656 5.253906 58.332031 C 5.835938 59.289062 5.894531 59.378906 6.378906 60.089844 C 6.613281 60.429688 6.96875 60.953125 7.171875 61.25 C 7.605469 61.886719 8.644531 63.21875 8.976562 63.558594 C 9.101562 63.691406 9.394531 64.023438 9.625 64.296875 C 10.164062 64.9375 11.003906 65.828125 11.578125 66.367188 C 11.828125 66.601562 12.402344 67.136719 12.855469 67.5625 C 13.730469 68.382812 14.554688 69.046875 15.832031 69.960938 C 16.269531 70.273438 16.644531 70.550781 16.667969 70.578125 C 16.691406 70.601562 16.773438 70.664062 16.851562 70.707031 C 16.929688 70.753906 17.21875 70.949219 17.5 71.144531 C 17.777344 71.339844 18.023438 71.5 18.042969 71.5 C 18.0625 71.5 18.410156 71.699219 18.8125 71.945312 C 19.675781 72.46875 22.210938 73.785156 23.195312 74.214844 C 25.109375 75.0625 27.949219 75.972656 30.042969 76.410156 C 30.5 76.507812 30.96875 76.621094 31.082031 76.664062 C 31.199219 76.707031 31.421875 76.765625 31.582031 76.789062 C 34.859375 77.328125 35.460938 77.375 38.792969 77.371094 C 42.066406 77.367188 43.191406 77.273438 45.875 76.78125 C 46.183594 76.722656 46.257812 76.703125 46.417969 76.640625 C 46.484375 76.617188 46.765625 76.550781 47.042969 76.496094 C 50.351562 75.863281 54.191406 74.421875 57.589844 72.542969 C 57.964844 72.335938 58.285156 72.167969 58.300781 72.167969 C 58.441406 72.167969 60.8125 70.578125 62.082031 69.632812 C 63.566406 68.527344 66.167969 66.21875 66.167969 66.003906 C 66.167969 65.898438 65.515625 65.316406 65.429688 65.34375 C 65.382812 65.363281 65.066406 65.636719 64.730469 65.957031 C 63.550781 67.070312 63.320312 67.277344 62.375 68.035156 C 61.414062 68.808594 61 69.105469 59.042969 70.417969 C 58.027344 71.101562 55.050781 72.703125 54.125 73.070312 C 53.894531 73.160156 53.425781 73.363281 53.082031 73.523438 C 52.492188 73.792969 51.710938 74.105469 51.25 74.25 C 44.199219 76.488281 38.09375 76.90625 31.375 75.613281 C 28.886719 75.132812 25.4375 74.101562 24.332031 73.507812 C 24.171875 73.421875 23.808594 73.253906 23.523438 73.132812 C 22.113281 72.542969 19.9375 71.417969 18.832031 70.703125 C 18.628906 70.570312 18.398438 70.421875 18.324219 70.375 C 17.894531 70.105469 16.066406 68.800781 15.261719 68.191406 C 14.867188 67.890625 14.355469 67.46875 14.125 67.253906 C 13.894531 67.035156 13.425781 66.601562 13.082031 66.285156 C 12.332031 65.59375 11.132812 64.402344 10.789062 64 C 10.652344 63.839844 10.21875 63.332031 9.832031 62.875 C 9.445312 62.417969 9.085938 62.003906 9.035156 61.957031 C 8.984375 61.914062 8.816406 61.6875 8.660156 61.457031 C 8.503906 61.230469 8.355469 61.023438 8.332031 61 C 8.308594 60.976562 8.214844 60.847656 8.121094 60.707031 C 8.023438 60.570312 7.777344 60.214844 7.574219 59.917969 C 6.347656 58.152344 5.265625 56.234375 4.414062 54.332031 C 4 53.414062 3.078125 51.132812 3.050781 50.957031 C 3.042969 50.914062 3.007812 50.828125 2.972656 50.769531 C 2.933594 50.710938 2.761719 50.183594 2.582031 49.59375 C 0.679688 43.265625 0.503906 36.082031 2.09375 29.59375 C 2.585938 27.582031 2.675781 27.304688 3.808594 24.417969 C 4.289062 23.199219 5.707031 20.296875 6.179688 19.566406 C 6.378906 19.261719 6.761719 18.660156 7.035156 18.234375 C 9.035156 15.078125 11.78125 12.035156 15.089844 9.289062 C 15.722656 8.765625 17.34375 7.597656 18.054688 7.15625 C 18.503906 6.875 19.117188 6.484375 19.417969 6.285156 C 20.546875 5.546875 22.792969 4.453125 24.75 3.695312 C 25.707031 3.324219 25.78125 3.296875 26.332031 3.058594 C 29.925781 1.515625 37.753906 0.625 42.707031 1.195312 C 51.175781 2.171875 58.78125 5.683594 64.71875 11.355469 C 65.503906 12.105469 65.457031 12.09375 65.867188 11.675781 C 66.242188 11.289062 66.257812 11.324219 65.421875 10.535156 C 62.300781 7.59375 57.46875 4.34375 54.777344 3.382812 C 54.601562 3.320312 54.175781 3.136719 53.832031 2.972656 C 49.136719 0.730469 41.339844 -0.449219 35.042969 0.125 M 37.207031 3.550781 C 33.558594 3.730469 28.792969 4.671875 26.457031 5.664062 C 26.277344 5.742188 26.023438 5.828125 25.957031 5.832031 C 25.9375 5.835938 25.789062 5.910156 25.628906 5.996094 C 25.46875 6.085938 25.023438 6.292969 24.632812 6.453125 C 23.605469 6.878906 22.503906 7.414062 21.46875 7.992188 C 20.96875 8.273438 20.546875 8.5 20.527344 8.5 C 20.503906 8.5 20.367188 8.59375 20.214844 8.707031 C 20.066406 8.824219 19.917969 8.917969 19.886719 8.917969 C 19.859375 8.917969 19.765625 8.984375 19.679688 9.0625 C 19.59375 9.140625 19.105469 9.488281 18.589844 9.832031 C 16.789062 11.035156 15.953125 11.738281 13.839844 13.832031 C 11.84375 15.816406 10.917969 16.925781 9.628906 18.875 C 9.359375 19.289062 9.054688 19.71875 8.953125 19.832031 C 8.53125 20.316406 6.808594 23.628906 6.363281 24.820312 C 6.246094 25.125 6.082031 25.488281 5.996094 25.628906 C 4.964844 27.308594 3.726562 33.375 3.542969 37.667969 C 3.351562 42.125 4.570312 48.925781 6.078125 51.832031 C 6.160156 51.992188 6.332031 52.402344 6.457031 52.738281 C 6.890625 53.886719 8.601562 57.101562 9.109375 57.71875 C 9.214844 57.851562 9.484375 58.238281 9.707031 58.582031 C 10.101562 59.203125 11.171875 60.640625 11.59375 61.125 C 11.714844 61.261719 11.988281 61.582031 12.207031 61.832031 C 13.613281 63.46875 16.34375 65.96875 17.792969 66.953125 C 18.113281 67.171875 18.46875 67.433594 18.582031 67.535156 C 19.101562 68 21.222656 69.246094 22.792969 70.011719 C 23.386719 70.304688 23.894531 70.5625 23.917969 70.585938 C 24.554688 71.261719 30.621094 73.042969 33.582031 73.425781 C 34.019531 73.484375 34.414062 73.554688 34.457031 73.589844 C 34.824219 73.859375 42.394531 73.855469 42.917969 73.585938 C 42.984375 73.550781 43.304688 73.496094 43.625 73.460938 C 48.066406 73.015625 54.140625 70.738281 58.238281 67.980469 C 60.335938 66.566406 63.582031 63.820312 63.582031 63.460938 C 63.582031 63.410156 63.4375 63.222656 63.257812 63.046875 L 62.929688 62.726562 L 62.453125 63.175781 C 61.558594 64.015625 61.445312 64.125 61.035156 64.503906 C 58.992188 66.386719 52.609375 70.25 51.535156 70.25 C 51.476562 70.25 51.378906 70.296875 51.316406 70.355469 C 51.253906 70.410156 51.167969 70.46875 51.121094 70.480469 C 51.078125 70.492188 50.496094 70.691406 49.832031 70.921875 C 44.242188 72.863281 37.476562 73.277344 31.667969 72.03125 C 29.746094 71.621094 27.054688 70.828125 26.417969 70.488281 C 26.257812 70.402344 26.097656 70.332031 26.058594 70.332031 C 26.023438 70.332031 25.832031 70.261719 25.640625 70.175781 C 25.449219 70.089844 24.914062 69.847656 24.453125 69.640625 C 23.992188 69.433594 23.351562 69.125 23.035156 68.957031 C 21.515625 68.144531 20.457031 67.539062 20.320312 67.402344 C 20.234375 67.320312 20.144531 67.25 20.117188 67.25 C 20.09375 67.25 20.019531 67.203125 19.957031 67.144531 C 19.894531 67.089844 19.535156 66.835938 19.164062 66.582031 C 18.402344 66.070312 17.105469 65.09375 16.671875 64.710938 C 15.179688 63.390625 14.363281 62.597656 13.648438 61.792969 C 13.285156 61.378906 12.773438 60.800781 12.511719 60.507812 C 11.609375 59.488281 10.890625 58.46875 9.234375 55.875 C 8.417969 54.59375 7.355469 52.289062 6.585938 50.125 C 6.390625 49.574219 6.164062 48.957031 6.082031 48.75 C 5.839844 48.144531 5.273438 45.722656 5.046875 44.328125 C 4.257812 39.449219 4.484375 34.539062 5.714844 29.847656 C 5.984375 28.824219 6.0625 28.585938 6.257812 28.125 C 6.296875 28.035156 6.449219 27.621094 6.589844 27.207031 C 8.351562 22.136719 11.679688 17.113281 15.609375 13.605469 C 17.78125 11.667969 18.332031 11.246094 20.667969 9.75 C 22.988281 8.257812 25.1875 7.257812 28.917969 5.988281 C 34.671875 4.03125 43.46875 4.167969 49.5 6.308594 C 52.042969 7.210938 55.039062 8.550781 55.808594 9.132812 C 55.953125 9.242188 56.113281 9.332031 56.160156 9.332031 C 56.210938 9.332031 56.25 9.371094 56.25 9.417969 C 56.25 9.460938 56.289062 9.5 56.335938 9.5 C 56.5625 9.5 59.640625 11.644531 60.578125 12.457031 C 61.347656 13.125 61.757812 13.496094 62.3125 14.035156 L 62.914062 14.617188 L 63.25 14.292969 C 63.683594 13.867188 63.683594 13.859375 62.980469 13.195312 C 62.648438 12.882812 62.214844 12.464844 62.019531 12.269531 C 61.570312 11.824219 59.308594 10.078125 58.539062 9.585938 C 58.21875 9.378906 57.929688 9.171875 57.898438 9.128906 C 57.859375 9.070312 57.835938 9.070312 57.832031 9.125 C 57.832031 9.171875 57.804688 9.167969 57.769531 9.117188 C 57.578125 8.828125 55.203125 7.507812 53.5 6.746094 C 52.972656 6.511719 52.351562 6.230469 52.121094 6.125 C 50.566406 5.398438 47.347656 4.480469 44.875 4.054688 C 42.664062 3.671875 39.253906 3.449219 37.207031 3.550781 M 37.082031 7.136719 C 34.210938 7.335938 32.113281 7.683594 29.855469 8.335938 C 28.648438 8.6875 27.464844 9.101562 27.429688 9.183594 C 27.414062 9.21875 27.363281 9.25 27.316406 9.25 C 26.8125 9.25 22.324219 11.484375 21.746094 12.023438 C 21.65625 12.105469 21.582031 12.144531 21.582031 12.109375 C 21.582031 12.070312 21.554688 12.082031 21.519531 12.132812 C 21.484375 12.183594 21.234375 12.367188 20.957031 12.539062 C 18.167969 14.308594 14.5625 17.894531 12.648438 20.808594 C 12.320312 21.304688 12.03125 21.726562 12 21.75 C 11.699219 21.972656 9.25 26.835938 9.25 27.207031 C 9.25 27.222656 9.207031 27.34375 9.152344 27.472656 C 9.097656 27.601562 9.050781 27.726562 9.042969 27.75 C 9.035156 27.773438 8.988281 27.886719 8.941406 28 C 7.308594 31.945312 6.710938 38.203125 7.464844 43.425781 C 7.746094 45.390625 8.738281 49.304688 9.003906 49.5 C 9.035156 49.523438 9.109375 49.691406 9.167969 49.875 C 10.84375 55.082031 15.21875 60.675781 20.753906 64.691406 C 23.761719 66.871094 28.292969 68.785156 32.417969 69.613281 C 38.507812 70.839844 46.25 70.070312 51.125 67.75 C 51.492188 67.574219 52.109375 67.285156 52.5 67.105469 C 53.886719 66.460938 56.296875 65.0625 56.832031 64.582031 C 56.949219 64.480469 57.398438 64.144531 57.835938 63.832031 C 58.929688 63.054688 61.082031 61.140625 61.082031 60.949219 C 61.082031 60.84375 60.476562 60.25 60.371094 60.25 C 60.328125 60.25 59.953125 60.578125 59.542969 60.980469 C 58.75 61.753906 57.890625 62.46875 57.015625 63.085938 C 56.726562 63.289062 56.304688 63.597656 56.082031 63.769531 C 55.855469 63.941406 55.640625 64.082031 55.601562 64.082031 C 55.5625 64.082031 55.453125 64.15625 55.355469 64.246094 C 54.828125 64.738281 52.457031 65.992188 50.542969 66.792969 C 49.808594 67.097656 49.097656 67.398438 48.957031 67.457031 C 48.253906 67.765625 45.410156 68.5 43.957031 68.746094 C 38.894531 69.609375 32.804688 69.09375 28.542969 67.441406 C 26.691406 66.726562 26.566406 66.671875 24.792969 65.828125 C 21.449219 64.242188 17.34375 60.878906 14.765625 57.621094 C 14.371094 57.121094 13.183594 55.449219 13.019531 55.167969 C 12.929688 55.007812 12.582031 54.425781 12.25 53.878906 C 11.71875 53.011719 11.425781 52.4375 10.75 50.957031 C 10.277344 49.925781 9.222656 46.878906 9.132812 46.296875 C 9.125 46.25 9.097656 46.171875 9.066406 46.125 C 8.992188 46.003906 8.617188 44.097656 8.46875 43.082031 C 7.980469 39.738281 8.089844 35.71875 8.753906 32.582031 C 8.847656 32.148438 8.945312 31.667969 8.972656 31.519531 C 9 31.367188 9.054688 31.226562 9.09375 31.203125 C 9.132812 31.175781 9.167969 31.082031 9.167969 30.992188 C 9.167969 30.023438 11.253906 25.015625 12.460938 23.082031 C 13.578125 21.292969 14.515625 19.957031 15.09375 19.324219 C 15.203125 19.207031 15.617188 18.738281 16.015625 18.285156 C 17.609375 16.460938 19.75 14.613281 21.8125 13.28125 C 22.351562 12.9375 22.894531 12.582031 23.015625 12.492188 C 23.140625 12.40625 23.28125 12.332031 23.328125 12.332031 C 23.378906 12.332031 23.417969 12.300781 23.417969 12.257812 C 23.417969 11.925781 27.921875 10.066406 31 9.125 C 36.597656 7.417969 44.582031 8.003906 50.625 10.558594 C 53.800781 11.90625 56.765625 13.804688 59.1875 16.039062 C 60.488281 17.238281 60.355469 17.183594 60.816406 16.738281 L 61.171875 16.390625 L 60.324219 15.589844 C 59.167969 14.503906 58.402344 13.878906 57.304688 13.117188 C 56.792969 12.761719 56.238281 12.371094 56.074219 12.242188 C 55.300781 11.648438 52.851562 10.339844 51.332031 9.710938 C 50.804688 9.496094 50.261719 9.261719 50.125 9.191406 C 47.472656 7.882812 41.023438 6.867188 37.082031 7.136719 M 36.832031 10.71875 C 34.085938 10.96875 30.707031 11.648438 29.625 12.167969 C 29.535156 12.210938 29.195312 12.34375 28.875 12.464844 C 27.269531 13.058594 25.375 13.960938 24.257812 14.660156 C 23.886719 14.894531 23.5625 15.082031 23.53125 15.082031 C 23.503906 15.082031 23.363281 15.179688 23.21875 15.296875 C 23.074219 15.414062 22.527344 15.824219 22 16.207031 C 21.472656 16.589844 21.003906 16.933594 20.957031 16.972656 C 18.757812 18.773438 16.414062 21.460938 14.730469 24.113281 C 14.027344 25.222656 12.332031 28.863281 12.332031 29.265625 C 12.332031 29.304688 12.261719 29.492188 12.175781 29.6875 C 11.828125 30.46875 11.355469 32.273438 11.085938 33.875 C 10.433594 37.710938 10.625 42.3125 11.578125 45.792969 C 11.917969 47.035156 11.996094 47.296875 12.078125 47.457031 C 12.125 47.550781 12.351562 48.132812 12.582031 48.75 C 13.058594 50.019531 14.40625 52.8125 14.773438 53.292969 C 14.808594 53.335938 14.921875 53.507812 15.027344 53.667969 C 16.175781 55.40625 17.070312 56.554688 18.164062 57.707031 C 19.632812 59.253906 20.191406 59.765625 21.5 60.75 C 21.890625 61.042969 22.226562 61.308594 22.25 61.335938 C 22.3125 61.410156 23.746094 62.417969 23.789062 62.417969 C 23.8125 62.417969 24.15625 62.609375 24.554688 62.84375 C 25.183594 63.214844 26.0625 63.65625 27.8125 64.46875 C 35.191406 67.898438 45.691406 67.195312 53.027344 62.777344 C 53.761719 62.335938 54.949219 61.566406 55 61.5 C 55.023438 61.46875 55.324219 61.234375 55.667969 60.980469 C 56.667969 60.242188 58.582031 58.566406 58.582031 58.429688 C 58.582031 58.394531 58.425781 58.210938 58.230469 58.023438 L 57.875 57.675781 L 57.332031 58.179688 C 56.101562 59.316406 53.734375 61.167969 53.507812 61.167969 C 53.464844 61.167969 53.417969 61.199219 53.402344 61.242188 C 53.332031 61.429688 49.640625 63.417969 49.359375 63.417969 C 49.335938 63.417969 49.199219 63.472656 49.054688 63.539062 C 48.132812 63.976562 45.675781 64.753906 44.332031 65.039062 C 41.933594 65.542969 37.539062 65.738281 35.457031 65.429688 C 33.390625 65.125 31.195312 64.644531 30.4375 64.328125 C 30.082031 64.179688 29.871094 64.097656 28.832031 63.703125 C 26.367188 62.769531 24.417969 61.632812 21.667969 59.527344 C 20.660156 58.753906 18.0625 56.113281 17.5 55.285156 C 17.34375 55.058594 17.195312 54.855469 17.167969 54.832031 C 17.066406 54.75 16.175781 53.441406 15.664062 52.625 C 15.125 51.765625 14.242188 50.054688 13.917969 49.25 C 13.816406 48.996094 13.695312 48.699219 13.648438 48.582031 C 13.125 47.308594 12.183594 43.910156 12.148438 43.140625 C 12.140625 43.039062 12.109375 42.921875 12.078125 42.875 C 11.671875 42.320312 11.679688 35.363281 12.085938 34.457031 C 12.125 34.367188 12.179688 34.105469 12.210938 33.875 C 12.484375 31.613281 14.308594 26.632812 15.390625 25.199219 C 15.496094 25.058594 15.582031 24.914062 15.582031 24.878906 C 15.582031 24.65625 17.648438 21.789062 18.40625 20.957031 C 20.085938 19.121094 22.132812 17.332031 23.75 16.289062 C 24.09375 16.066406 24.640625 15.714844 24.960938 15.503906 C 26.839844 14.289062 31.132812 12.628906 33.082031 12.355469 C 33.242188 12.335938 33.414062 12.285156 33.457031 12.25 C 33.503906 12.210938 33.953125 12.121094 34.457031 12.050781 C 39.117188 11.378906 43.0625 11.730469 47.457031 13.207031 C 49.171875 13.78125 51.503906 14.824219 52.140625 15.300781 C 52.285156 15.410156 52.429688 15.5 52.457031 15.5 C 52.484375 15.5 52.609375 15.570312 52.734375 15.65625 C 52.855469 15.742188 53.339844 16.058594 53.804688 16.359375 C 54.710938 16.945312 56.199219 18.109375 56.875 18.761719 C 57.105469 18.980469 57.421875 19.273438 57.578125 19.40625 L 57.867188 19.652344 L 58.128906 19.429688 C 58.6875 18.960938 58.683594 18.953125 57.90625 18.226562 C 55.359375 15.839844 52.375 13.949219 49.199219 12.710938 C 48.652344 12.5 48.027344 12.25 47.800781 12.15625 C 47.578125 12.0625 47.335938 11.972656 47.261719 11.960938 C 47.1875 11.945312 46.957031 11.875 46.75 11.808594 C 44.351562 11.015625 39.464844 10.480469 36.832031 10.71875 M 36.75 14.308594 C 35.351562 14.410156 32.199219 15.007812 31.761719 15.253906 C 31.6875 15.292969 31.21875 15.460938 30.722656 15.625 C 28.265625 16.4375 26.578125 17.3125 24.292969 18.964844 C 22.21875 20.460938 20.398438 22.277344 18.980469 24.253906 C 17.320312 26.570312 16.367188 28.429688 15.582031 30.878906 C 15.390625 31.472656 15.1875 32.089844 15.125 32.25 C 14.925781 32.773438 14.566406 34.574219 14.402344 35.875 C 14.269531 36.929688 14.269531 40.449219 14.402344 41.5 C 14.5625 42.777344 14.878906 44.378906 15.058594 44.832031 C 15.085938 44.902344 15.117188 44.996094 15.132812 45.042969 C 18.550781 57.320312 30.1875 64.761719 42.824219 62.746094 C 44.351562 62.5 46.625 61.894531 47.457031 61.507812 C 48.441406 61.050781 48.742188 60.917969 48.796875 60.917969 C 48.972656 60.917969 52.1875 59.179688 52.332031 59.003906 C 52.355469 58.976562 52.488281 58.882812 52.625 58.796875 C 52.761719 58.710938 53.101562 58.457031 53.375 58.238281 C 53.648438 58.015625 54.136719 57.625 54.457031 57.367188 C 55.992188 56.136719 56.140625 55.917969 55.726562 55.515625 C 55.371094 55.171875 55.300781 55.179688 54.839844 55.605469 C 52.972656 57.308594 50.675781 58.882812 48.757812 59.769531 C 47.589844 60.308594 45.304688 61.132812 44.753906 61.214844 C 44.597656 61.238281 44.429688 61.289062 44.378906 61.328125 C 44.019531 61.628906 40.738281 62.023438 38.625 62.019531 C 36.53125 62.015625 33.179688 61.570312 32.785156 61.246094 C 32.722656 61.195312 32.636719 61.175781 32.59375 61.203125 C 32.546875 61.230469 32.488281 61.214844 32.457031 61.167969 C 32.429688 61.121094 32.371094 61.101562 32.332031 61.125 C 32.292969 61.148438 32.238281 61.132812 32.210938 61.085938 C 32.179688 61.039062 32.085938 61 31.996094 61 C 31.316406 61 27.046875 59.042969 25.917969 58.214844 C 25.574219 57.960938 24.917969 57.484375 24.457031 57.152344 C 22.414062 55.667969 19.726562 52.597656 18.460938 50.292969 C 18.335938 50.0625 18.179688 49.816406 18.117188 49.742188 C 17.980469 49.589844 17.074219 47.546875 16.769531 46.707031 C 14.929688 41.617188 14.910156 36.023438 16.710938 30.84375 C 17.105469 29.707031 18.050781 27.5625 18.175781 27.515625 C 18.21875 27.5 18.25 27.433594 18.25 27.367188 C 18.25 27.304688 18.289062 27.25 18.332031 27.25 C 18.378906 27.25 18.417969 27.207031 18.417969 27.152344 C 18.417969 26.992188 20.113281 24.5 20.679688 23.832031 C 22.449219 21.746094 24.347656 20.097656 26.5 18.789062 C 26.796875 18.609375 27.058594 18.4375 27.082031 18.40625 C 27.15625 18.316406 28.964844 17.429688 29.683594 17.136719 C 31.5 16.390625 33.523438 15.84375 35.375 15.589844 C 35.742188 15.539062 36.136719 15.480469 36.25 15.460938 C 38.441406 15.0625 42.394531 15.421875 45.363281 16.289062 C 47.039062 16.777344 49.917969 18.007812 50.480469 18.476562 C 50.578125 18.558594 50.851562 18.738281 51.085938 18.875 C 52.203125 19.527344 54.652344 21.4375 55.03125 21.953125 C 55.246094 22.242188 55.375 22.222656 55.710938 21.855469 C 56.085938 21.449219 56.078125 21.417969 55.5625 20.929688 C 53.117188 18.625 50.140625 16.804688 47.125 15.757812 C 46.574219 15.570312 46.050781 15.378906 45.957031 15.339844 C 44.347656 14.609375 39.695312 14.085938 36.75 14.308594 "/>
<path style=" stroke:none;fill-rule:evenodd;fill:rgb(14.117647%,14.117647%,14.117647%);fill-opacity:1;" d="M 36.414062 20.800781 C 35.976562 20.863281 35.339844 20.992188 34.996094 21.082031 C 34.65625 21.175781 34.28125 21.269531 34.167969 21.296875 C 34.054688 21.324219 33.921875 21.378906 33.867188 21.421875 C 33.816406 21.464844 33.570312 21.570312 33.324219 21.65625 C 30.230469 22.722656 27.464844 25.523438 25.953125 29.128906 C 23.917969 33.988281 23.726562 42.371094 25.53125 47.542969 C 26.085938 49.128906 26.898438 50.832031 27.097656 50.832031 C 27.136719 50.832031 27.167969 50.886719 27.167969 50.953125 C 27.167969 51.015625 27.195312 51.082031 27.230469 51.097656 C 27.265625 51.113281 27.511719 51.425781 27.777344 51.792969 C 28.042969 52.160156 28.566406 52.769531 28.941406 53.148438 C 29.546875 53.761719 30.003906 54.105469 31.707031 55.21875 C 35.246094 57.523438 44.777344 57.605469 48.121094 55.355469 C 48.304688 55.230469 48.589844 55.058594 48.75 54.972656 C 49.847656 54.378906 52.414062 52.1875 52.320312 51.921875 C 52.304688 51.882812 51.546875 51.09375 50.640625 50.171875 L 48.988281 48.492188 L 48.308594 49.136719 C 45.839844 51.464844 43.636719 52.316406 40.082031 52.320312 C 38.433594 52.324219 38.230469 52.300781 36.980469 51.972656 C 33.777344 51.132812 31.65625 49.207031 30.578125 46.167969 C 30.472656 45.867188 30.359375 45.585938 30.328125 45.542969 C 30.089844 45.226562 29.703125 42.941406 29.613281 41.355469 L 29.558594 40.332031 L 53.5 40.332031 L 53.5 38.855469 C 53.5 32.398438 52.234375 28.148438 49.355469 24.910156 C 46.460938 21.652344 41.464844 20.066406 36.414062 20.800781 M 69.75 38.25 L 69.75 53.667969 L 88.917969 53.667969 L 88.917969 50.582031 L 73.25 50.582031 L 73.25 22.832031 L 69.75 22.832031 L 69.75 38.25 M 101.636719 23.394531 C 101.519531 23.703125 101.230469 24.503906 100.996094 25.167969 C 100.757812 25.832031 100.453125 26.695312 100.316406 27.082031 C 100.179688 27.472656 100.035156 27.828125 100.003906 27.875 C 99.929688 27.972656 99.4375 29.269531 99.039062 30.417969 C 98.441406 32.140625 97.003906 36.078125 96.921875 36.222656 C 96.832031 36.375 96.34375 37.6875 95.582031 39.832031 C 94.316406 43.378906 94.089844 43.996094 93.921875 44.367188 C 93.753906 44.734375 93.246094 46.121094 91.523438 50.917969 C 91.21875 51.765625 90.945312 52.496094 90.910156 52.542969 C 90.835938 52.640625 90.5 53.511719 90.5 53.605469 C 90.5 53.636719 91.339844 53.667969 92.363281 53.667969 L 94.226562 53.667969 L 94.4375 53.0625 C 94.554688 52.730469 94.929688 51.652344 95.269531 50.667969 C 95.613281 49.679688 96.058594 48.398438 96.257812 47.8125 L 96.625 46.75 L 109.957031 46.75 L 110.28125 47.6875 C 111.195312 50.351562 111.949219 52.496094 112.078125 52.792969 C 112.160156 52.976562 112.273438 53.246094 112.332031 53.394531 L 112.4375 53.667969 L 114.261719 53.667969 C 115.261719 53.667969 116.082031 53.640625 116.082031 53.613281 C 116.082031 53.515625 115.230469 51.210938 115.164062 51.125 C 115.128906 51.078125 114.886719 50.441406 114.628906 49.707031 C 114.367188 48.976562 113.972656 47.867188 113.75 47.25 C 113.527344 46.632812 113.09375 45.429688 112.789062 44.582031 C 112.484375 43.734375 112.160156 42.878906 112.070312 42.683594 C 111.902344 42.316406 111.441406 41.058594 110.957031 39.667969 C 110.316406 37.820312 109.234375 34.863281 109.085938 34.550781 C 108.996094 34.363281 108.632812 33.402344 108.285156 32.417969 C 106.929688 28.617188 106.226562 26.691406 106.046875 26.292969 C 105.945312 26.0625 105.617188 25.191406 105.324219 24.355469 L 104.792969 22.835938 L 103.320312 22.832031 L 101.847656 22.832031 L 101.636719 23.394531 M 120.832031 38.25 L 120.832031 53.675781 L 127.019531 53.648438 C 132.511719 53.617188 133.296875 53.597656 134 53.46875 C 135.304688 53.222656 136.941406 52.617188 137.5 52.175781 C 137.613281 52.085938 137.933594 51.84375 138.207031 51.636719 C 141.695312 49.027344 142.511719 45.796875 142.246094 35.644531 C 142.070312 29.035156 140.945312 26.433594 137.261719 24.132812 C 135.4375 22.996094 134.613281 22.890625 127.1875 22.855469 L 120.832031 22.824219 L 120.832031 38.25 M 149.917969 38.253906 L 149.917969 53.679688 L 156.144531 53.640625 C 162.796875 53.601562 162.703125 53.609375 164.320312 53.164062 C 164.996094 52.980469 166.207031 52.445312 166.417969 52.242188 C 166.484375 52.175781 166.726562 52.011719 166.957031 51.878906 C 167.746094 51.421875 169.582031 49.46875 169.582031 49.089844 C 169.582031 49.039062 169.617188 49 169.65625 49 C 169.898438 49 170.644531 47.070312 170.90625 45.75 C 171.589844 42.308594 171.550781 33.675781 170.832031 30.390625 C 170.011719 26.617188 167.296875 23.9375 163.417969 23.074219 C 162.546875 22.878906 162.5 22.878906 156.230469 22.851562 L 149.917969 22.824219 L 149.917969 38.253906 M 185.824219 23.058594 C 185.773438 23.1875 185.550781 23.8125 185.328125 24.445312 C 185.105469 25.078125 184.886719 25.640625 184.84375 25.695312 C 184.769531 25.789062 184.644531 26.128906 183.445312 29.457031 C 182.507812 32.074219 181.847656 33.855469 181.597656 34.457031 C 181.464844 34.777344 181.207031 35.472656 181.019531 36 C 180.117188 38.558594 178.921875 41.832031 178.773438 42.167969 C 178.679688 42.371094 178.339844 43.273438 178.015625 44.167969 C 176.589844 48.09375 176.386719 48.660156 176.1875 49.25 C 176.074219 49.59375 175.875 50.101562 175.75 50.375 C 175.515625 50.886719 174.582031 53.460938 174.582031 53.59375 C 174.582031 53.632812 175.40625 53.667969 176.410156 53.667969 L 178.238281 53.667969 L 178.421875 53.105469 C 178.523438 52.796875 178.679688 52.371094 178.773438 52.167969 C 178.917969 51.84375 180.667969 46.867188 180.667969 46.78125 C 180.667969 46.761719 183.671875 46.757812 187.347656 46.769531 L 194.027344 46.792969 L 194.894531 49.292969 C 195.371094 50.667969 195.902344 52.203125 196.074219 52.707031 L 196.386719 53.625 L 198.191406 53.648438 C 200.257812 53.671875 200.140625 53.726562 199.835938 52.902344 C 199.746094 52.660156 199.410156 51.726562 199.089844 50.832031 C 197.640625 46.777344 197.0625 45.203125 197.003906 45.125 C 196.96875 45.078125 196.707031 44.386719 196.421875 43.582031 C 196.140625 42.78125 195.742188 41.675781 195.542969 41.125 C 195.34375 40.574219 194.945312 39.46875 194.660156 38.667969 C 194.375 37.863281 194.058594 37.019531 193.957031 36.792969 C 193.765625 36.371094 193.210938 34.867188 192.707031 33.417969 C 192.09375 31.648438 191.070312 28.863281 190.917969 28.546875 C 190.828125 28.359375 190.523438 27.550781 190.238281 26.75 C 189.953125 25.949219 189.527344 24.746094 189.292969 24.082031 L 188.867188 22.875 L 185.914062 22.828125 L 185.824219 23.058594 M 40.46875 25.378906 C 44.007812 25.992188 46.699219 28.558594 47.671875 32.242188 C 47.828125 32.835938 48 34.101562 48.125 35.605469 L 48.179688 36.25 L 29.566406 36.25 L 29.621094 35.4375 C 29.820312 32.445312 30.246094 30.988281 31.457031 29.171875 C 33.429688 26.203125 36.867188 24.753906 40.46875 25.378906 M 133.292969 26.144531 C 135.914062 26.734375 137.644531 28.402344 138.292969 30.953125 C 138.90625 33.375 139.058594 41.398438 138.546875 44.292969 C 137.996094 47.40625 136.722656 49.132812 134.332031 50.007812 C 133.039062 50.476562 132.652344 50.511719 128.3125 50.558594 L 124.332031 50.601562 L 124.332031 25.902344 L 128.4375 25.9375 C 132.1875 25.96875 132.605469 25.988281 133.292969 26.144531 M 162.238281 26.117188 C 163.78125 26.476562 164.722656 26.96875 165.574219 27.859375 C 167.507812 29.878906 167.824219 31.15625 167.894531 37.320312 C 167.976562 44.859375 167.546875 46.804688 165.320312 48.878906 C 163.816406 50.28125 162.296875 50.582031 156.6875 50.582031 L 153.332031 50.582031 L 153.332031 25.90625 L 157.480469 25.941406 C 161.023438 25.96875 161.714844 25.996094 162.238281 26.117188 M 104.671875 31.625 C 105.328125 33.550781 105.90625 35.152344 105.953125 35.1875 C 106.003906 35.21875 106.015625 35.246094 105.984375 35.25 C 105.953125 35.25 106.015625 35.449219 106.121094 35.691406 C 106.230469 35.9375 106.410156 36.433594 106.527344 36.796875 C 106.640625 37.160156 107.097656 38.507812 107.542969 39.792969 C 107.988281 41.074219 108.476562 42.492188 108.628906 42.9375 L 108.90625 43.75 L 103.328125 43.75 C 100.261719 43.75 97.75 43.730469 97.75 43.710938 C 97.75 43.6875 98.054688 42.796875 98.425781 41.730469 C 98.796875 40.664062 99.269531 39.304688 99.476562 38.707031 C 99.683594 38.113281 99.921875 37.476562 100 37.292969 C 100.230469 36.769531 100.613281 35.691406 102.390625 30.542969 C 102.691406 29.671875 102.988281 28.886719 103.046875 28.792969 C 103.105469 28.699219 103.199219 28.464844 103.257812 28.265625 C 103.390625 27.808594 103.273438 27.53125 104.671875 31.625 M 187.878906 29.222656 C 187.945312 29.371094 188.449219 30.792969 188.996094 32.390625 C 190.523438 36.859375 190.746094 37.503906 190.914062 37.867188 C 191.078125 38.234375 192.917969 43.566406 192.917969 43.679688 C 192.917969 43.71875 190.402344 43.75 187.332031 43.75 C 181.613281 43.75 181.542969 43.746094 181.828125 43.453125 C 181.902344 43.378906 182.484375 41.78125 183.207031 39.667969 C 184.363281 36.300781 184.78125 35.121094 184.828125 35.082031 C 184.859375 35.058594 185.230469 34.046875 185.65625 32.832031 C 186.078125 31.617188 186.636719 30.019531 186.898438 29.28125 L 187.375 27.9375 L 187.566406 28.449219 C 187.667969 28.726562 187.808594 29.078125 187.878906 29.222656 M 56.75 38.292969 L 56.75 40.332031 L 66.332031 40.332031 L 66.332031 36.25 L 56.75 36.25 L 56.75 38.292969 M 19.25 57.277344 C 19.25 57.289062 19.371094 57.414062 19.519531 57.546875 L 19.792969 57.792969 L 19.546875 57.519531 C 19.320312 57.269531 19.25 57.210938 19.25 57.277344 M 82.25 64.707031 L 82.25 68 L 86.332031 68 L 86.332031 67.082031 L 83.082031 67.082031 L 83.082031 65 L 85.832031 65 L 85.832031 64.167969 L 83.082031 64.167969 L 83.082031 62.167969 L 86.332031 62.167969 L 86.332031 61.417969 L 82.25 61.417969 L 82.25 64.707031 M 96.25 64.257812 C 96.25 67.796875 96.257812 67.824219 97.480469 67.964844 L 98 68.023438 L 98 67.167969 L 97.671875 67.167969 C 97.082031 67.167969 97.082031 67.164062 97.082031 64.105469 L 97.082031 61.417969 L 96.25 61.417969 L 96.25 64.257812 M 105.269531 64.6875 L 105.292969 67.957031 L 109.375 67.957031 L 109.375 67.125 L 107.769531 67.101562 L 106.167969 67.078125 L 106.167969 61.417969 L 105.246094 61.417969 L 105.269531 64.6875 M 147.601562 64.679688 L 147.625 67.957031 L 149.042969 67.953125 C 151.742188 67.941406 152.386719 67.160156 152.21875 64.121094 C 152.152344 62.910156 152.007812 62.433594 151.589844 62.054688 C 150.953125 61.480469 150.871094 61.460938 149.144531 61.429688 L 147.582031 61.402344 L 147.601562 64.679688 M 167.25 64.222656 C 167.25 67.789062 167.292969 67.914062 168.519531 67.945312 L 168.957031 67.957031 L 168.984375 67.5625 L 169.007812 67.167969 L 168.675781 67.167969 C 168.070312 67.167969 168.082031 67.242188 168.082031 64.160156 L 168.082031 61.417969 L 167.25 61.417969 L 167.25 64.222656 M 197.832031 62.667969 L 197.832031 63.332031 L 197.582031 63.332031 C 197.347656 63.332031 197.332031 63.351562 197.332031 63.667969 C 197.332031 63.980469 197.347656 64 197.578125 64 L 197.820312 64 L 197.847656 65.5625 C 197.882812 67.628906 197.992188 67.84375 199.0625 67.964844 L 199.582031 68.023438 L 199.582031 67.167969 L 199.292969 67.167969 C 198.71875 67.167969 198.667969 67.027344 198.667969 65.417969 L 198.667969 64 L 199.582031 64 L 199.582031 63.332031 L 198.667969 63.332031 L 198.667969 62 L 197.832031 62 L 197.832031 62.667969 M 150.503906 62.355469 C 151.046875 62.628906 151.234375 63.054688 151.300781 64.167969 C 151.4375 66.488281 151.039062 67.082031 149.363281 67.082031 L 148.417969 67.082031 L 148.417969 62.167969 L 149.273438 62.167969 C 149.996094 62.167969 150.191406 62.195312 150.503906 62.355469 M 88.417969 63.324219 C 87.535156 63.515625 87.214844 63.917969 87.617188 64.324219 L 87.902344 64.609375 L 88.164062 64.347656 C 88.828125 63.683594 89.929688 63.972656 90.050781 64.847656 L 90.105469 65.234375 L 89.15625 65.261719 C 87.703125 65.308594 87.210938 65.636719 87.210938 66.566406 C 87.210938 67.730469 88.617188 68.433594 89.765625 67.84375 C 90.0625 67.695312 90.070312 67.695312 90.109375 67.84375 C 90.140625 67.964844 90.230469 68 90.492188 68 L 90.832031 68 L 90.832031 66.144531 C 90.832031 64.019531 90.789062 63.847656 90.203125 63.523438 C 89.828125 63.316406 88.910156 63.214844 88.417969 63.324219 M 93.769531 63.367188 C 93.570312 63.429688 93.355469 63.53125 93.289062 63.585938 C 93.1875 63.667969 93.167969 63.65625 93.167969 63.511719 C 93.167969 63.355469 93.117188 63.332031 92.792969 63.332031 L 92.417969 63.332031 L 92.417969 68 L 93.167969 68 L 93.167969 66.5625 C 93.167969 65.773438 93.207031 64.980469 93.257812 64.800781 C 93.46875 64.039062 94.191406 63.796875 94.851562 64.269531 C 95.0625 64.417969 95.585938 63.90625 95.449219 63.6875 C 95.230469 63.335938 94.371094 63.171875 93.769531 63.367188 M 111.25 63.324219 C 110.347656 63.519531 110.066406 63.910156 110.507812 64.351562 L 110.765625 64.609375 L 110.945312 64.398438 C 111.617188 63.597656 112.917969 63.964844 112.917969 64.953125 L 112.917969 65.234375 L 111.9375 65.261719 C 110.53125 65.304688 110.085938 65.628906 110.082031 66.609375 C 110.082031 67.726562 111.351562 68.378906 112.554688 67.875 C 112.824219 67.761719 112.867188 67.761719 112.953125 67.878906 C 113.019531 67.972656 113.148438 68.003906 113.378906 67.984375 L 113.707031 67.957031 L 113.734375 66.457031 C 113.773438 64.152344 113.667969 63.75 112.945312 63.449219 C 112.613281 63.308594 111.644531 63.238281 111.25 63.324219 M 116.519531 63.402344 C 116.175781 63.523438 116.082031 63.535156 116.082031 63.445312 C 116.082031 63.367188 115.960938 63.332031 115.667969 63.332031 L 115.25 63.332031 L 115.25 68.007812 L 115.644531 67.984375 L 116.042969 67.957031 L 116.082031 66.292969 C 116.132812 64.296875 116.261719 64 117.085938 64 C 117.820312 64 117.949219 64.328125 118 66.292969 L 118.042969 67.957031 L 118.875 67.957031 L 118.898438 66.347656 C 118.910156 65.410156 118.882812 64.605469 118.832031 64.414062 C 118.582031 63.488281 117.550781 63.035156 116.519531 63.402344 M 121.375 63.324219 C 120.375 63.585938 119.9375 64.773438 120.203125 66.53125 C 120.371094 67.664062 121.667969 68.296875 122.6875 67.75 L 123 67.582031 L 123 67.878906 C 123 69.039062 121.933594 69.582031 120.984375 68.90625 L 120.757812 68.746094 L 120.484375 69 L 120.207031 69.253906 L 120.5 69.503906 C 121.203125 70.109375 122.710938 70.058594 123.308594 69.40625 C 123.726562 68.949219 123.75 68.777344 123.75 65.960938 L 123.75 63.332031 L 123.375 63.332031 C 123.054688 63.332031 123 63.359375 123 63.503906 L 123 63.671875 L 122.769531 63.503906 C 122.515625 63.316406 121.769531 63.21875 121.375 63.324219 M 131.457031 63.300781 C 131.367188 63.320312 131.207031 63.359375 131.105469 63.378906 C 130.921875 63.417969 130.332031 63.886719 130.335938 63.988281 C 130.339844 64.015625 130.445312 64.164062 130.574219 64.3125 L 130.804688 64.585938 L 131.0625 64.339844 C 131.75 63.683594 132.847656 63.980469 132.96875 64.855469 L 133.023438 65.25 L 132.199219 65.25 C 130.722656 65.25 130.132812 65.632812 130.128906 66.582031 C 130.125 67.714844 131.554688 68.421875 132.683594 67.84375 C 132.980469 67.695312 132.988281 67.695312 133.027344 67.851562 C 133.0625 67.984375 133.132812 68.003906 133.429688 67.984375 L 133.792969 67.957031 L 133.792969 66.070312 C 133.792969 63.933594 133.78125 63.898438 133.113281 63.523438 C 132.78125 63.339844 131.828125 63.210938 131.457031 63.300781 M 136.261719 63.328125 C 134.738281 63.710938 134.621094 67.261719 136.109375 67.828125 C 136.507812 67.980469 137.339844 67.9375 137.644531 67.75 L 137.917969 67.585938 L 137.917969 67.914062 C 137.917969 69.03125 136.730469 69.640625 135.960938 68.917969 L 135.765625 68.738281 L 135.488281 68.988281 C 134.820312 69.589844 136.507812 70.222656 137.628906 69.792969 C 138.617188 69.417969 138.75 68.945312 138.75 65.746094 L 138.75 63.332031 L 138.332031 63.332031 C 138.015625 63.332031 137.917969 63.363281 137.917969 63.460938 C 137.917969 63.574219 137.890625 63.574219 137.675781 63.460938 C 137.371094 63.304688 136.632812 63.234375 136.261719 63.328125 M 141.347656 63.34375 C 139.828125 63.703125 139.59375 67.0625 141.035156 67.8125 C 142.113281 68.367188 144.28125 67.613281 143.558594 66.929688 C 143.3125 66.699219 143.242188 66.703125 142.867188 66.957031 C 142.074219 67.496094 141.125 67.132812 140.917969 66.210938 L 140.851562 65.917969 L 143.832031 65.917969 L 143.832031 65.429688 C 143.832031 63.855469 142.8125 63 141.347656 63.34375 M 154.792969 63.324219 C 152.964844 63.800781 152.796875 67.246094 154.574219 67.871094 C 155.8125 68.308594 157.632812 67.5 156.804688 66.882812 C 156.617188 66.742188 156.550781 66.730469 156.433594 66.8125 C 155.59375 67.40625 154.664062 67.292969 154.328125 66.558594 C 154.027344 65.890625 153.972656 65.917969 155.679688 65.917969 L 157.191406 65.917969 L 157.136719 65.351562 C 156.992188 63.78125 156.074219 62.988281 154.792969 63.324219 M 163.53125 63.328125 C 161.769531 63.75 161.660156 67.382812 163.394531 67.902344 C 164.628906 68.269531 166.300781 67.550781 165.640625 66.929688 C 165.402344 66.707031 165.234375 66.703125 165.046875 66.910156 C 164.433594 67.585938 163 67.039062 163 66.128906 L 163 65.917969 L 165.917969 65.917969 L 165.917969 65.433594 C 165.917969 63.871094 164.925781 62.996094 163.53125 63.328125 M 171.207031 63.285156 C 171.164062 63.304688 171.023438 63.339844 170.898438 63.367188 C 169.417969 63.695312 169.265625 67.132812 170.699219 67.828125 C 172.507812 68.703125 174.066406 66.675781 173.304688 64.441406 C 173.042969 63.675781 171.867188 63.03125 171.207031 63.285156 M 176.25 63.324219 C 176.132812 63.359375 175.917969 63.453125 175.769531 63.53125 C 175.507812 63.667969 175.5 63.664062 175.5 63.503906 C 175.5 63.359375 175.445312 63.332031 175.125 63.332031 L 174.75 63.332031 L 174.75 69.917969 L 175.5 69.917969 L 175.5 67.589844 L 175.886719 67.792969 C 177.546875 68.675781 178.75 67.144531 178.324219 64.695312 C 178.136719 63.621094 177.210938 63.007812 176.25 63.324219 M 181.019531 63.402344 C 180.675781 63.523438 180.582031 63.535156 180.582031 63.445312 C 180.582031 63.367188 180.460938 63.332031 180.167969 63.332031 L 179.75 63.332031 L 179.75 68.007812 L 180.144531 67.984375 L 180.542969 67.957031 L 180.582031 66.289062 C 180.632812 64.378906 180.671875 64.246094 181.257812 64.070312 C 182.3125 63.753906 182.582031 64.234375 182.582031 66.402344 L 182.582031 68.007812 L 182.980469 67.984375 L 183.375 67.957031 L 183.417969 66.292969 C 183.464844 64.324219 183.605469 64 184.410156 64 C 185.238281 64 185.367188 64.292969 185.417969 66.292969 L 185.457031 67.957031 L 185.859375 67.984375 L 186.261719 68.007812 L 186.234375 66.191406 C 186.210938 64.457031 186.199219 64.359375 186.011719 64.03125 C 185.519531 63.171875 184.046875 63.015625 183.226562 63.730469 C 183.09375 63.847656 183.066406 63.84375 182.894531 63.691406 C 182.433594 63.269531 181.703125 63.15625 181.019531 63.402344 M 188.800781 63.347656 C 187.492188 63.714844 187.003906 66.109375 187.992188 67.324219 C 188.683594 68.175781 190.136719 68.261719 190.949219 67.496094 L 191.292969 67.171875 L 191.042969 66.964844 C 190.726562 66.703125 190.660156 66.703125 190.285156 66.957031 C 189.496094 67.492188 188.574219 67.117188 188.378906 66.1875 L 188.320312 65.917969 L 191.332031 65.917969 L 191.332031 65.519531 C 191.332031 63.941406 190.1875 62.960938 188.800781 63.347656 M 194.042969 63.34375 C 193.859375 63.386719 193.675781 63.457031 193.628906 63.503906 C 193.511719 63.621094 193.417969 63.601562 193.417969 63.457031 C 193.417969 63.363281 193.316406 63.332031 193 63.332031 L 192.582031 63.332031 L 192.601562 65.644531 L 192.625 67.957031 L 193.375 67.957031 L 193.417969 66.289062 C 193.464844 64.378906 193.503906 64.246094 194.089844 64.070312 C 195.113281 63.765625 195.363281 64.1875 195.417969 66.332031 L 195.457031 67.957031 L 196.207031 67.957031 L 196.207031 66.167969 C 196.207031 64.621094 196.1875 64.339844 196.058594 64.105469 C 195.675781 63.394531 194.96875 63.128906 194.042969 63.34375 M 98 63.355469 C 98 63.40625 98.828125 65.742188 99.195312 66.734375 L 99.574219 67.757812 L 99.402344 68.234375 C 99.195312 68.796875 98.917969 69.082031 98.578125 69.082031 C 98.34375 69.082031 98.332031 69.097656 98.332031 69.46875 L 98.332031 69.855469 L 98.796875 69.808594 C 99.558594 69.730469 99.851562 69.429688 100.273438 68.292969 C 101.113281 66.023438 102 63.507812 102 63.398438 C 102 63.359375 101.808594 63.335938 101.570312 63.351562 L 101.144531 63.375 L 100.59375 65.019531 C 100.292969 65.921875 100.023438 66.636719 99.992188 66.601562 C 99.960938 66.570312 99.699219 65.820312 99.40625 64.9375 L 98.878906 63.332031 L 98.4375 63.332031 C 98.199219 63.332031 98 63.34375 98 63.355469 M 125.335938 65.0625 C 125.335938 66.992188 125.394531 67.257812 125.90625 67.6875 C 126.335938 68.050781 127.402344 68.109375 127.878906 67.796875 C 128.136719 67.628906 128.167969 67.632812 128.167969 67.832031 C 128.167969 67.976562 128.222656 68 128.542969 68 L 128.917969 68 L 128.917969 63.332031 L 128.167969 63.332031 L 128.164062 64.769531 C 128.164062 66.84375 128.023438 67.167969 127.117188 67.167969 C 126.230469 67.167969 126.089844 66.832031 126.085938 64.730469 L 126.082031 63.332031 L 125.332031 63.332031 L 125.335938 65.0625 M 157.667969 63.355469 C 157.667969 63.367188 157.914062 64.070312 158.214844 64.917969 C 158.515625 65.765625 158.882812 66.796875 159.03125 67.207031 L 159.296875 67.957031 L 159.640625 67.984375 L 159.984375 68.007812 L 160.167969 67.441406 C 160.273438 67.128906 160.429688 66.726562 160.519531 66.542969 C 160.691406 66.1875 161.667969 63.523438 161.667969 63.402344 C 161.667969 63.191406 160.828125 63.335938 160.746094 63.5625 C 160.699219 63.6875 160.628906 63.867188 160.582031 63.957031 C 160.539062 64.050781 160.328125 64.632812 160.117188 65.25 C 159.90625 65.867188 159.707031 66.421875 159.675781 66.476562 C 159.644531 66.535156 159.378906 65.851562 159.082031 64.957031 L 158.546875 63.332031 L 158.105469 63.332031 C 157.863281 63.332031 157.667969 63.34375 157.667969 63.355469 M 122.46875 64.160156 C 123.265625 64.644531 123.113281 66.796875 122.265625 67.070312 C 121.324219 67.375 120.675781 66.269531 121 64.921875 C 121.191406 64.121094 121.847656 63.78125 122.46875 64.160156 M 137.558594 64.285156 C 138.210938 65.042969 137.984375 66.804688 137.203125 67.074219 C 136.195312 67.425781 135.496094 65.933594 136.042969 64.601562 C 136.292969 63.988281 137.148438 63.808594 137.558594 64.285156 M 142.359375 64.078125 C 142.617188 64.175781 142.917969 64.589844 143 64.964844 L 143.066406 65.25 L 140.851562 65.25 L 140.914062 64.976562 C 141.089844 64.183594 141.679688 63.820312 142.359375 64.078125 M 155.761719 64.128906 C 155.910156 64.207031 156.078125 64.402344 156.171875 64.609375 C 156.464844 65.257812 156.472656 65.25 155.25 65.25 C 154.039062 65.25 154.0625 65.261719 154.300781 64.664062 C 154.527344 64.097656 155.214844 63.847656 155.761719 64.128906 M 164.613281 64.171875 C 164.871094 64.375 165.003906 64.597656 165.085938 64.976562 L 165.148438 65.25 L 163 65.25 L 163 65.019531 C 163 64.257812 164.03125 63.714844 164.613281 64.171875 M 171.964844 64.121094 C 172.730469 64.441406 172.859375 66.363281 172.15625 66.957031 C 171.375 67.613281 170.5 66.925781 170.5 65.65625 C 170.503906 64.394531 171.105469 63.761719 171.964844 64.121094 M 177.140625 64.179688 C 177.535156 64.503906 177.71875 65.71875 177.496094 66.515625 C 177.253906 67.398438 176.003906 67.402344 175.65625 66.523438 C 175.109375 65.136719 176.203125 63.40625 177.140625 64.179688 M 190.015625 64.21875 C 190.214844 64.398438 190.417969 64.832031 190.417969 65.082031 C 190.417969 65.242188 190.367188 65.25 189.367188 65.25 L 188.320312 65.25 L 188.378906 64.980469 C 188.5625 64.121094 189.445312 63.710938 190.015625 64.21875 M 90.0625 66.289062 C 89.9375 67.390625 88.082031 67.667969 88.082031 66.585938 C 88.082031 66.054688 88.339844 65.917969 89.3125 65.917969 L 90.105469 65.917969 L 90.0625 66.289062 M 112.917969 66.28125 C 112.917969 67.324219 111.105469 67.648438 110.871094 66.648438 C 110.757812 66.167969 111.183594 65.917969 112.117188 65.917969 L 112.917969 65.917969 L 112.917969 66.28125 M 132.96875 66.308594 C 132.816406 67.425781 131 67.648438 131 66.546875 C 131 66.058594 131.28125 65.917969 132.230469 65.917969 L 133.023438 65.917969 L 132.96875 66.308594 M 131.417969 71.707031 L 131.417969 72.167969 L 132.25 72.167969 L 132.25 71.25 L 131.417969 71.25 L 131.417969 71.707031 M 144.332031 74.542969 L 144.332031 77.832031 L 145.066406 77.832031 L 145.101562 76.230469 C 145.136719 74.464844 145.144531 74.445312 145.523438 74.164062 C 145.9375 73.859375 146.511719 73.886719 146.859375 74.234375 L 147.125 74.503906 L 147.179688 77.832031 L 147.925781 77.832031 L 147.902344 75.972656 L 147.875 74.109375 L 147.640625 73.769531 C 147.191406 73.125 146.007812 72.9375 145.355469 73.402344 L 145.082031 73.59375 L 145.082031 71.25 L 144.332031 71.25 L 144.332031 74.542969 M 156.75 74.535156 L 156.75 77.832031 L 158.039062 77.832031 C 160.875 77.832031 161.371094 77.347656 161.371094 74.582031 C 161.375 71.75 160.976562 71.324219 158.269531 71.265625 L 156.75 71.234375 L 156.75 74.535156 M 162.75 71.707031 L 162.75 72.167969 L 163.582031 72.167969 L 163.582031 71.25 L 162.75 71.25 L 162.75 71.707031 M 170.167969 71.707031 L 170.167969 72.167969 L 171 72.167969 L 171 71.25 L 170.167969 71.25 L 170.167969 71.707031 M 180.332031 74.144531 C 180.335938 77.703125 180.378906 77.832031 181.664062 77.832031 L 182.082031 77.832031 L 182.082031 77.09375 L 181.691406 77.066406 C 181.082031 77.027344 181.085938 77.046875 181.085938 73.9375 L 181.082031 71.25 L 180.332031 71.25 L 180.332031 74.144531 M 186.734375 72.105469 C 185.835938 74.582031 185.09375 76.664062 185 76.957031 C 184.941406 77.140625 184.863281 77.3125 184.828125 77.335938 C 184.792969 77.359375 184.738281 77.480469 184.703125 77.609375 L 184.648438 77.84375 L 185.136719 77.816406 L 185.625 77.792969 L 185.863281 77.058594 L 186.101562 76.328125 L 187.4375 76.351562 L 188.777344 76.375 L 188.851562 76.625 C 188.894531 76.761719 189.003906 77.089844 189.097656 77.355469 L 189.269531 77.832031 L 189.664062 77.832031 C 190.199219 77.832031 190.195312 77.878906 189.746094 76.597656 C 187.890625 71.332031 187.851562 71.25 187.390625 71.25 L 187.042969 71.25 L 186.734375 72.105469 M 141.332031 72.5 L 141.332031 73.167969 L 141.082031 73.167969 C 140.84375 73.167969 140.832031 73.179688 140.832031 73.542969 C 140.832031 73.902344 140.84375 73.917969 141.078125 73.917969 L 141.320312 73.917969 L 141.351562 75.480469 C 141.390625 77.550781 141.488281 77.734375 142.597656 77.816406 L 143.167969 77.855469 L 143.167969 77.082031 L 142.851562 77.082031 C 142.195312 77.082031 142.167969 77.015625 142.167969 75.371094 L 142.167969 73.917969 L 143.167969 73.917969 L 143.167969 73.167969 L 142.167969 73.167969 L 142.167969 71.832031 L 141.332031 71.832031 L 141.332031 72.5 M 172.640625 71.890625 C 172.609375 71.917969 172.582031 72.21875 172.582031 72.554688 L 172.582031 73.167969 L 172.292969 73.167969 C 172 73.167969 172 73.167969 172 73.542969 C 172 73.914062 172 73.917969 172.292969 73.917969 L 172.582031 73.917969 L 172.582031 75.445312 C 172.582031 77.417969 172.820312 77.832031 173.9375 77.832031 L 174.332031 77.832031 L 174.332031 77.09375 L 173.980469 77.066406 C 173.464844 77.03125 173.417969 76.890625 173.417969 75.269531 L 173.417969 73.917969 L 174.332031 73.917969 L 174.332031 73.167969 L 173.417969 73.167969 L 173.417969 71.832031 L 173.054688 71.832031 C 172.855469 71.832031 172.667969 71.859375 172.640625 71.890625 M 159.820312 72.273438 C 160.15625 72.496094 160.417969 72.929688 160.417969 73.269531 C 160.417969 73.382812 160.4375 73.492188 160.464844 73.519531 C 160.492188 73.546875 160.511719 74.007812 160.511719 74.542969 C 160.511719 75.078125 160.492188 75.539062 160.464844 75.5625 C 160.4375 75.589844 160.417969 75.6875 160.417969 75.777344 C 160.417969 76.578125 159.785156 77.015625 158.570312 77.066406 L 157.667969 77.105469 L 157.667969 71.976562 L 158.585938 72.019531 C 159.386719 72.058594 159.542969 72.089844 159.820312 72.273438 M 187.5 72.859375 C 187.5 72.914062 187.570312 73.089844 187.65625 73.25 C 187.742188 73.410156 187.8125 73.558594 187.816406 73.582031 C 187.820312 73.605469 187.84375 73.679688 187.871094 73.75 C 187.894531 73.820312 188.046875 74.257812 188.203125 74.730469 L 188.488281 75.582031 L 187.445312 75.582031 C 186.644531 75.582031 186.410156 75.558594 186.429688 75.476562 C 186.574219 74.921875 187.386719 72.6875 187.433594 72.71875 C 187.472656 72.742188 187.5 72.804688 187.5 72.859375 M 131.417969 75.5 L 131.417969 77.832031 L 132.25 77.832031 L 132.25 73.167969 L 131.417969 73.167969 L 131.417969 75.5 M 133.832031 75.5 L 133.832031 77.832031 L 134.570312 77.832031 L 134.597656 76.214844 C 134.632812 74.152344 134.914062 73.683594 135.925781 74.011719 C 136.574219 74.222656 136.621094 74.363281 136.652344 76.214844 L 136.675781 77.832031 L 137.417969 77.832031 L 137.417969 76.078125 C 137.417969 74.179688 137.371094 73.960938 136.902344 73.527344 C 136.472656 73.125 135.464844 73.027344 134.894531 73.332031 L 134.582031 73.5 L 134.582031 73.332031 C 134.582031 73.191406 134.527344 73.167969 134.207031 73.167969 L 133.832031 73.167969 L 133.832031 75.5 M 150.277344 73.316406 C 149.609375 73.675781 149.292969 74.375 149.292969 75.5 C 149.289062 77.179688 149.835938 77.832031 151.25 77.832031 C 152.507812 77.832031 153.21875 77.320312 152.675781 76.800781 L 152.4375 76.570312 L 152.207031 76.785156 C 151.394531 77.539062 150.082031 77.019531 150.082031 75.949219 L 150.082031 75.75 L 153 75.75 L 153 75.1875 C 152.996094 73.644531 151.535156 72.640625 150.277344 73.316406 M 162.804688 73.222656 C 162.773438 73.253906 162.75 74.304688 162.75 75.554688 L 162.75 77.832031 L 163.582031 77.832031 L 163.582031 73.167969 L 163.222656 73.167969 C 163.023438 73.167969 162.835938 73.191406 162.804688 73.222656 M 165.863281 73.285156 C 164.652344 73.816406 164.566406 76.929688 165.746094 77.617188 C 166.128906 77.839844 167.085938 77.855469 167.480469 77.640625 L 167.75 77.496094 L 167.75 77.894531 C 167.75 78.886719 166.699219 79.425781 165.90625 78.839844 C 165.601562 78.613281 165.488281 78.621094 165.246094 78.878906 C 164.640625 79.523438 166.746094 80.105469 167.707031 79.558594 C 168.503906 79.105469 168.582031 78.765625 168.582031 75.6875 L 168.582031 73.167969 L 168.207031 73.167969 C 167.863281 73.167969 167.832031 73.183594 167.832031 73.371094 L 167.832031 73.578125 L 167.53125 73.371094 C 167.175781 73.132812 166.320312 73.089844 165.863281 73.285156 M 170.167969 75.5 L 170.167969 77.832031 L 170.917969 77.832031 L 170.917969 73.167969 L 170.167969 73.167969 L 170.167969 75.5 M 176.042969 73.285156 C 175.71875 73.425781 175.332031 73.789062 175.332031 73.949219 C 175.332031 74.128906 175.832031 74.460938 175.957031 74.367188 C 176.375 74.058594 176.53125 73.980469 176.820312 73.941406 C 177.515625 73.847656 178 74.214844 178 74.828125 L 178 75.082031 L 177.335938 75.082031 C 175.804688 75.082031 175.234375 75.425781 175.183594 76.386719 C 175.148438 77.050781 175.328125 77.410156 175.832031 77.679688 C 176.207031 77.878906 177.386719 77.894531 177.753906 77.707031 C 177.976562 77.589844 178 77.59375 178 77.710938 C 178 77.816406 178.085938 77.835938 178.4375 77.816406 L 178.875 77.792969 L 178.875 74.292969 L 178.625 73.894531 C 178.203125 73.222656 176.886719 72.910156 176.042969 73.285156 M 191.757812 73.257812 C 190.503906 73.757812 190.363281 76.855469 191.566406 77.597656 C 192.015625 77.875 192.960938 77.871094 193.339844 77.59375 L 193.609375 77.390625 L 193.5625 77.859375 C 193.4375 79.046875 192.648438 79.402344 191.605469 78.746094 C 191.433594 78.636719 191.398438 78.648438 191.148438 78.902344 L 190.875 79.171875 L 191.082031 79.335938 C 192.105469 80.128906 193.863281 79.800781 194.285156 78.738281 C 194.394531 78.46875 194.417969 77.972656 194.417969 75.789062 L 194.417969 73.167969 L 194.035156 73.167969 C 193.726562 73.167969 193.644531 73.199219 193.609375 73.328125 C 193.566406 73.484375 193.5625 73.484375 193.304688 73.328125 C 193.015625 73.152344 192.125 73.109375 191.757812 73.257812 M 196.777344 73.328125 C 195.292969 74.003906 195.382812 77.324219 196.894531 77.746094 C 198.210938 78.109375 199.847656 77.445312 199.175781 76.816406 L 198.910156 76.570312 L 198.625 76.820312 C 197.824219 77.527344 196.789062 77.121094 196.542969 76.011719 L 196.488281 75.75 L 199.523438 75.75 L 199.476562 75.136719 C 199.355469 73.542969 198.121094 72.71875 196.777344 73.328125 M 151.804688 74.179688 C 152.046875 74.402344 152.121094 74.535156 152.199219 74.855469 L 152.253906 75.082031 L 151.167969 75.082031 C 150.128906 75.082031 150.082031 75.074219 150.082031 74.914062 C 150.082031 74.109375 151.214844 73.625 151.804688 74.179688 M 167.367188 74.152344 C 167.886719 74.613281 167.898438 76.339844 167.382812 76.824219 C 166.582031 77.578125 165.710938 76.792969 165.769531 75.367188 C 165.816406 74.117188 166.628906 73.503906 167.367188 74.152344 M 192.957031 74.035156 C 193.722656 74.355469 193.792969 76.472656 193.054688 76.921875 C 192.199219 77.445312 191.492188 76.621094 191.609375 75.238281 C 191.699219 74.171875 192.203125 73.722656 192.957031 74.035156 M 198.132812 74.074219 C 198.382812 74.226562 198.667969 74.691406 198.667969 74.949219 C 198.667969 75.066406 198.519531 75.082031 197.574219 75.082031 L 196.480469 75.082031 L 196.539062 74.855469 C 196.726562 74.089844 197.519531 73.699219 198.132812 74.074219 M 178 76.171875 C 178 77.039062 176.78125 77.53125 176.160156 76.910156 C 175.59375 76.34375 176.171875 75.765625 177.3125 75.753906 L 178 75.75 L 178 76.171875 "/>
<path style=" stroke:none;fill-rule:evenodd;fill:rgb(32.941176%,45.490196%,29.803922%);fill-opacity:1;" d="M 11.035156 11.4375 L 10.792969 11.707031 L 11.0625 11.464844 C 11.316406 11.234375 11.371094 11.167969 11.308594 11.167969 C 11.292969 11.167969 11.171875 11.289062 11.035156 11.4375 M 15.355469 38.625 C 15.359375 38.855469 15.375 38.9375 15.394531 38.8125 C 15.414062 38.683594 15.410156 38.496094 15.390625 38.394531 C 15.371094 38.292969 15.355469 38.394531 15.355469 38.625 "/>
</g>
</svg>
