<?xml version="1.0" encoding="UTF-8"?>
<svg xmlns="http://www.w3.org/2000/svg" xmlns:xlink="http://www.w3.org/1999/xlink" width="120px" height="80px" viewBox="0 0 119 80" version="1.1">
<g id="surface1">
<path style=" stroke:none;fill-rule:evenodd;fill:rgb(97.647059%,79.215686%,1.960784%);fill-opacity:1;" d="M 59.449219 9.703125 C 59.429688 9.753906 59.214844 10.414062 58.976562 11.171875 L 58.539062 12.554688 L 56.972656 12.578125 L 55.40625 12.605469 L 56.660156 13.507812 C 57.351562 14.007812 57.914062 14.429688 57.914062 14.449219 C 57.914062 14.464844 57.710938 15.117188 57.460938 15.898438 C 57.210938 16.675781 57.019531 17.324219 57.03125 17.335938 C 57.042969 17.347656 57.597656 16.953125 58.265625 16.460938 L 59.480469 15.566406 L 60.671875 16.4375 C 61.328125 16.917969 61.894531 17.332031 61.929688 17.359375 C 61.976562 17.398438 61.980469 17.375 61.941406 17.261719 C 61.582031 16.1875 61.046875 14.425781 61.074219 14.398438 C 61.09375 14.382812 61.664062 13.972656 62.335938 13.484375 L 63.5625 12.605469 L 62 12.589844 L 60.441406 12.578125 L 60.132812 11.601562 C 59.554688 9.789062 59.488281 9.605469 59.449219 9.703125 M 46.457031 13.203125 C 46.4375 13.253906 46.222656 13.914062 45.980469 14.671875 L 45.542969 16.050781 L 43.96875 16.078125 L 42.394531 16.101562 L 43.613281 16.992188 C 44.285156 17.480469 44.859375 17.894531 44.882812 17.910156 C 44.910156 17.929688 44.734375 18.5625 44.46875 19.398438 C 44.214844 20.199219 44.015625 20.863281 44.023438 20.871094 C 44.03125 20.878906 44.578125 20.488281 45.234375 20.003906 C 45.890625 19.519531 46.453125 19.121094 46.484375 19.121094 C 46.515625 19.121094 47.082031 19.519531 47.746094 20.007812 C 48.40625 20.492188 48.949219 20.867188 48.949219 20.835938 C 48.949219 20.804688 48.742188 20.144531 48.492188 19.363281 C 48.242188 18.582031 48.042969 17.941406 48.050781 17.933594 C 48.0625 17.925781 48.636719 17.511719 49.328125 17.011719 L 50.585938 16.101562 L 49.015625 16.089844 L 47.441406 16.078125 L 47.007812 14.71875 C 46.769531 13.976562 46.558594 13.308594 46.535156 13.238281 C 46.5 13.125 46.488281 13.121094 46.457031 13.203125 M 72.042969 14.542969 C 71.800781 15.316406 71.582031 15.984375 71.558594 16.027344 C 71.523438 16.089844 71.292969 16.097656 69.964844 16.085938 C 68.609375 16.074219 68.421875 16.082031 68.488281 16.148438 C 68.53125 16.1875 69.027344 16.554688 69.597656 16.96875 C 70.164062 17.378906 70.699219 17.765625 70.789062 17.832031 L 70.945312 17.953125 L 70.757812 18.550781 C 70.652344 18.878906 70.441406 19.542969 70.289062 20.023438 C 70.011719 20.890625 70.011719 20.902344 70.140625 20.816406 C 70.210938 20.769531 70.773438 20.359375 71.390625 19.90625 L 72.507812 19.082031 L 73.734375 19.984375 C 74.40625 20.484375 74.964844 20.882812 74.972656 20.875 C 74.984375 20.867188 74.785156 20.21875 74.535156 19.441406 C 74.285156 18.660156 74.078125 18 74.078125 17.976562 C 74.082031 17.949219 74.648438 17.519531 75.339844 17.019531 C 76.695312 16.035156 76.664062 16.066406 76.457031 16.078125 C 76.382812 16.085938 75.675781 16.085938 74.886719 16.082031 L 73.449219 16.078125 L 73 14.660156 C 72.753906 13.878906 72.535156 13.21875 72.519531 13.1875 C 72.5 13.160156 72.289062 13.769531 72.042969 14.542969 M 36.589844 23.914062 C 36.378906 24.582031 36.164062 25.257812 36.113281 25.410156 L 36.023438 25.6875 L 34.476562 25.714844 L 32.929688 25.738281 L 34.164062 26.628906 C 34.84375 27.117188 35.398438 27.539062 35.402344 27.566406 C 35.402344 27.59375 35.199219 28.253906 34.949219 29.03125 C 34.699219 29.8125 34.503906 30.457031 34.511719 30.464844 C 34.519531 30.472656 35.058594 30.089844 35.707031 29.613281 C 36.359375 29.136719 36.914062 28.734375 36.945312 28.722656 C 36.980469 28.710938 37.550781 29.101562 38.21875 29.589844 C 38.886719 30.082031 39.441406 30.480469 39.449219 30.480469 C 39.460938 30.480469 39.3125 29.996094 39.125 29.40625 C 38.933594 28.8125 38.722656 28.152344 38.65625 27.933594 L 38.535156 27.542969 L 38.769531 27.371094 C 38.898438 27.277344 39.457031 26.871094 40.011719 26.46875 L 41.019531 25.738281 L 39.480469 25.714844 L 37.945312 25.6875 L 37.785156 25.207031 C 37.695312 24.941406 37.476562 24.269531 37.300781 23.710938 L 36.980469 22.695312 L 36.589844 23.914062 M 81.957031 22.792969 C 81.9375 22.847656 81.722656 23.507812 81.480469 24.265625 L 81.042969 25.636719 L 79.46875 25.652344 L 77.898438 25.664062 L 79.003906 26.464844 C 79.609375 26.902344 80.183594 27.320312 80.273438 27.390625 L 80.4375 27.519531 L 79.976562 28.957031 C 79.726562 29.75 79.527344 30.40625 79.539062 30.417969 C 79.546875 30.425781 80.101562 30.035156 80.769531 29.542969 C 81.550781 28.96875 82.007812 28.664062 82.046875 28.6875 C 82.117188 28.730469 84.078125 30.171875 84.335938 30.367188 L 84.496094 30.488281 L 84.429688 30.269531 C 84.359375 30.027344 83.597656 27.652344 83.5625 27.558594 C 83.550781 27.527344 84.109375 27.09375 84.804688 26.597656 L 86.066406 25.6875 L 82.957031 25.664062 L 82.710938 24.890625 C 82.101562 22.976562 82 22.695312 81.957031 22.792969 M 84.957031 37.253906 L 84.484375 38.75 L 81.363281 38.75 L 81.558594 38.894531 C 81.667969 38.972656 82.238281 39.386719 82.824219 39.808594 L 83.890625 40.578125 L 83.769531 40.96875 C 83.703125 41.1875 83.492188 41.847656 83.300781 42.441406 C 83.109375 43.03125 82.964844 43.515625 82.976562 43.515625 C 82.992188 43.515625 83.542969 43.117188 84.210938 42.625 C 84.875 42.136719 85.445312 41.746094 85.476562 41.757812 C 85.511719 41.769531 86.070312 42.171875 86.714844 42.648438 C 87.363281 43.128906 87.902344 43.511719 87.910156 43.5 C 87.917969 43.492188 87.722656 42.847656 87.472656 42.070312 C 87.226562 41.289062 87.023438 40.628906 87.023438 40.601562 C 87.023438 40.574219 87.582031 40.152344 88.257812 39.664062 L 89.492188 38.773438 L 87.945312 38.75 L 86.402344 38.722656 L 85.933594 37.261719 C 85.679688 36.457031 85.460938 35.792969 85.449219 35.78125 C 85.4375 35.769531 85.214844 36.433594 84.957031 37.253906 M 33.277344 36.429688 C 33.175781 36.742188 32.96875 37.398438 32.8125 37.886719 L 32.53125 38.773438 L 30.960938 38.761719 C 29.640625 38.753906 29.402344 38.761719 29.460938 38.820312 C 29.503906 38.855469 30.070312 39.269531 30.71875 39.738281 C 31.371094 40.207031 31.910156 40.597656 31.917969 40.605469 C 31.929688 40.609375 31.730469 41.261719 31.476562 42.050781 C 31.226562 42.839844 31.023438 43.5 31.03125 43.519531 C 31.039062 43.539062 31.578125 43.160156 32.230469 42.675781 C 32.882812 42.195312 33.449219 41.800781 33.488281 41.800781 C 33.53125 41.800781 34.097656 42.195312 34.75 42.675781 C 35.398438 43.160156 35.9375 43.539062 35.945312 43.519531 C 35.953125 43.5 35.753906 42.839844 35.5 42.050781 C 35.238281 41.230469 35.0625 40.597656 35.089844 40.582031 C 35.113281 40.566406 35.6875 40.152344 36.363281 39.664062 L 37.589844 38.773438 L 36.011719 38.75 L 34.433594 38.722656 L 33.976562 37.292969 C 33.726562 36.503906 33.507812 35.859375 33.492188 35.859375 C 33.472656 35.859375 33.378906 36.117188 33.277344 36.429688 M 36.636719 49.941406 C 36.453125 50.523438 36.242188 51.191406 36.164062 51.429688 L 36.023438 51.859375 L 34.46875 51.886719 L 32.914062 51.910156 L 34.140625 52.796875 C 34.8125 53.285156 35.375 53.710938 35.386719 53.738281 C 35.398438 53.769531 35.203125 54.429688 34.953125 55.207031 C 34.703125 55.988281 34.507812 56.632812 34.519531 56.644531 C 34.53125 56.652344 35.085938 56.257812 35.753906 55.765625 L 36.96875 54.867188 L 37.15625 55 C 37.257812 55.070312 37.816406 55.480469 38.398438 55.910156 C 38.980469 56.339844 39.460938 56.6875 39.46875 56.683594 C 39.472656 56.679688 39.265625 56.015625 39.003906 55.207031 C 38.5625 53.84375 38.535156 53.734375 38.613281 53.671875 C 38.664062 53.632812 39.230469 53.222656 39.875 52.757812 L 41.046875 51.910156 L 39.492188 51.898438 L 37.9375 51.882812 L 37.46875 50.402344 C 37.210938 49.585938 36.992188 48.910156 36.984375 48.902344 C 36.980469 48.894531 36.824219 49.359375 36.636719 49.941406 M 81.585938 50.167969 C 81.359375 50.875 81.144531 51.546875 81.109375 51.65625 L 81.046875 51.859375 L 79.472656 51.875 L 77.898438 51.886719 L 79.097656 52.753906 C 79.757812 53.230469 80.328125 53.648438 80.367188 53.6875 C 80.425781 53.742188 80.363281 53.980469 79.976562 55.1875 C 79.726562 55.976562 79.527344 56.628906 79.539062 56.640625 C 79.550781 56.652344 79.816406 56.46875 80.128906 56.238281 C 81.585938 55.152344 81.988281 54.875 82.046875 54.910156 C 82.109375 54.949219 84.324219 56.574219 84.4375 56.664062 C 84.46875 56.6875 84.433594 56.507812 84.355469 56.261719 C 84.183594 55.707031 83.589844 53.859375 83.5625 53.785156 C 83.554688 53.757812 84.109375 53.324219 84.800781 52.820312 L 86.054688 51.910156 L 84.5 51.898438 L 82.945312 51.882812 L 82.894531 51.695312 C 82.863281 51.589844 82.652344 50.914062 82.417969 50.191406 L 81.996094 48.878906 L 81.585938 50.167969 M 46.027344 59.96875 L 45.554688 61.46875 L 43.992188 61.484375 L 42.429688 61.496094 L 43.675781 62.402344 C 44.359375 62.898438 44.921875 63.332031 44.921875 63.363281 C 44.921875 63.398438 44.71875 64.0625 44.46875 64.839844 C 44.21875 65.621094 44.023438 66.261719 44.027344 66.269531 C 44.035156 66.273438 44.59375 65.871094 45.269531 65.371094 C 45.949219 64.875 46.503906 64.464844 46.507812 64.464844 C 46.507812 64.464844 47.066406 64.875 47.742188 65.371094 C 48.421875 65.871094 48.980469 66.277344 48.984375 66.269531 C 48.992188 66.265625 48.792969 65.617188 48.539062 64.828125 C 48.289062 64.042969 48.09375 63.371094 48.109375 63.335938 C 48.121094 63.300781 48.683594 62.875 49.359375 62.386719 L 50.585938 61.496094 L 49.023438 61.484375 L 47.457031 61.46875 L 47.039062 60.140625 C 46.808594 59.40625 46.59375 58.734375 46.558594 58.640625 C 46.503906 58.476562 46.484375 58.535156 46.027344 59.96875 M 72.394531 58.667969 C 72.375 58.746094 72.167969 59.40625 71.933594 60.140625 L 71.507812 61.46875 L 69.945312 61.484375 L 68.386719 61.496094 L 69.644531 62.40625 C 70.339844 62.90625 70.90625 63.328125 70.90625 63.34375 C 70.90625 63.359375 70.691406 64.03125 70.433594 64.832031 C 70.171875 65.632812 69.988281 66.273438 70.019531 66.253906 C 70.050781 66.234375 70.613281 65.824219 71.273438 65.339844 L 72.46875 64.460938 L 73.664062 65.339844 C 74.320312 65.824219 74.886719 66.234375 74.914062 66.253906 C 74.945312 66.273438 74.761719 65.632812 74.5 64.832031 C 74.242188 64.03125 74.03125 63.359375 74.03125 63.34375 C 74.027344 63.328125 74.59375 62.90625 75.289062 62.40625 L 76.546875 61.496094 L 74.980469 61.472656 L 73.414062 61.445312 L 72.953125 59.988281 C 72.480469 58.496094 72.453125 58.429688 72.394531 58.667969 M 59.074219 63.253906 C 58.847656 63.960938 58.632812 64.632812 58.597656 64.742188 L 58.535156 64.945312 L 56.988281 64.972656 L 55.441406 64.996094 L 56.675781 65.882812 C 57.351562 66.371094 57.910156 66.792969 57.910156 66.820312 C 57.914062 66.84375 57.710938 67.503906 57.460938 68.285156 C 57.210938 69.066406 57.011719 69.710938 57.023438 69.722656 C 57.03125 69.730469 57.570312 69.347656 58.21875 68.871094 C 58.867188 68.394531 59.425781 67.992188 59.457031 67.980469 C 59.488281 67.96875 60.058594 68.359375 60.722656 68.847656 C 61.386719 69.339844 61.945312 69.738281 61.957031 69.738281 C 61.96875 69.738281 61.769531 69.085938 61.511719 68.285156 C 61.253906 67.484375 61.050781 66.816406 61.058594 66.800781 C 61.070312 66.785156 61.628906 66.371094 62.304688 65.882812 L 63.535156 64.996094 L 61.992188 64.984375 L 60.449219 64.96875 L 59.980469 63.488281 C 59.71875 62.671875 59.503906 61.996094 59.496094 61.988281 C 59.488281 61.976562 59.296875 62.546875 59.074219 63.253906 "/>
<path style=" stroke:none;fill-rule:evenodd;fill:rgb(1.568627%,20.392157%,60.784314%);fill-opacity:1;" d="M 0 39.941406 L 0 79.882812 L 119 79.882812 L 119 0 L 0 0 L 0 39.941406 M 60.003906 11.109375 L 60.464844 12.554688 L 62.035156 12.578125 L 63.609375 12.605469 L 62.347656 13.515625 C 61.652344 14.015625 61.085938 14.4375 61.085938 14.453125 C 61.085938 14.46875 61.300781 15.140625 61.558594 15.949219 C 61.816406 16.761719 62.023438 17.429688 62.015625 17.4375 C 62.007812 17.445312 61.445312 17.042969 60.757812 16.539062 C 60.074219 16.035156 59.5 15.621094 59.480469 15.621094 C 59.464844 15.621094 58.894531 16.03125 58.214844 16.53125 C 57.539062 17.03125 56.972656 17.429688 56.964844 17.421875 C 56.957031 17.414062 57.15625 16.753906 57.410156 15.953125 C 57.664062 15.15625 57.863281 14.476562 57.847656 14.441406 C 57.835938 14.40625 57.269531 13.980469 56.59375 13.492188 L 55.359375 12.605469 L 56.929688 12.589844 L 58.496094 12.578125 L 58.941406 11.171875 C 59.46875 9.507812 59.476562 9.484375 59.515625 9.585938 C 59.53125 9.628906 59.75 10.3125 60.003906 11.109375 M 47.246094 15.378906 L 47.464844 16.074219 L 49.046875 16.089844 L 50.628906 16.101562 L 49.375 17.011719 C 48.683594 17.511719 48.109375 17.929688 48.097656 17.9375 C 48.085938 17.949219 48.285156 18.609375 48.539062 19.40625 C 48.796875 20.203125 49 20.875 48.992188 20.898438 C 48.980469 20.925781 48.414062 20.535156 47.730469 20.03125 L 46.488281 19.117188 L 45.242188 20.03125 C 44.558594 20.535156 43.988281 20.9375 43.976562 20.925781 C 43.964844 20.914062 44.160156 20.257812 44.414062 19.46875 C 44.664062 18.675781 44.871094 18.007812 44.871094 17.980469 C 44.871094 17.953125 44.300781 17.519531 43.605469 17.015625 L 42.339844 16.101562 L 45.503906 16.078125 L 45.949219 14.671875 C 46.191406 13.898438 46.414062 13.207031 46.441406 13.136719 C 46.496094 13.003906 46.550781 13.160156 47.246094 15.378906 M 72.878906 14.164062 C 73.070312 14.757812 73.28125 15.429688 73.351562 15.660156 L 73.480469 16.078125 L 75.066406 16.089844 L 76.65625 16.101562 L 75.375 17.03125 L 74.09375 17.957031 L 74.566406 19.433594 C 74.824219 20.246094 75.027344 20.921875 75.015625 20.933594 C 75.003906 20.945312 74.4375 20.539062 73.753906 20.035156 L 72.511719 19.117188 L 71.28125 20.019531 C 69.859375 21.058594 69.929688 21.019531 70.027344 20.734375 C 70.691406 18.734375 70.902344 17.980469 70.816406 17.898438 C 70.769531 17.855469 70.199219 17.433594 69.546875 16.960938 L 68.363281 16.101562 L 69.945312 16.078125 L 71.53125 16.050781 L 72.007812 14.542969 C 72.269531 13.714844 72.496094 13.046875 72.511719 13.0625 C 72.523438 13.074219 72.691406 13.570312 72.878906 14.164062 M 82.695312 24.738281 L 82.96875 25.613281 L 84.542969 25.613281 C 85.40625 25.613281 86.113281 25.628906 86.113281 25.652344 C 86.113281 25.671875 85.546875 26.097656 84.855469 26.59375 C 84.164062 27.09375 83.597656 27.515625 83.597656 27.53125 C 83.597656 27.546875 83.804688 28.207031 84.058594 28.996094 C 84.3125 29.785156 84.507812 30.445312 84.492188 30.460938 C 84.472656 30.476562 83.914062 30.085938 83.246094 29.59375 C 82.53125 29.070312 82 28.710938 81.957031 28.726562 C 81.917969 28.742188 81.425781 29.09375 80.867188 29.503906 C 79.554688 30.472656 79.515625 30.496094 79.488281 30.472656 C 79.476562 30.460938 79.679688 29.789062 79.9375 28.984375 C 80.40625 27.523438 80.40625 27.515625 80.300781 27.4375 C 80.246094 27.390625 79.683594 26.984375 79.054688 26.53125 C 78.421875 26.078125 77.894531 25.6875 77.878906 25.660156 C 77.863281 25.632812 78.476562 25.613281 79.433594 25.613281 L 81.019531 25.613281 L 81.097656 25.371094 C 81.140625 25.238281 81.347656 24.582031 81.558594 23.914062 C 81.773438 23.246094 81.960938 22.675781 81.976562 22.648438 C 82.003906 22.597656 82.226562 23.242188 82.695312 24.738281 M 37.484375 24.175781 L 37.949219 25.636719 L 39.523438 25.652344 C 40.386719 25.660156 41.09375 25.683594 41.089844 25.703125 C 41.089844 25.722656 40.53125 26.140625 39.851562 26.628906 C 39.171875 27.117188 38.609375 27.53125 38.597656 27.546875 C 38.578125 27.578125 39.460938 30.402344 39.519531 30.503906 C 39.589844 30.617188 39.308594 30.429688 38.191406 29.609375 C 37.535156 29.128906 36.980469 28.738281 36.960938 28.742188 C 36.941406 28.75 36.378906 29.15625 35.707031 29.648438 C 35.039062 30.140625 34.480469 30.535156 34.46875 30.523438 C 34.449219 30.503906 34.929688 28.957031 35.296875 27.839844 L 35.390625 27.550781 L 34.101562 26.621094 L 32.8125 25.6875 L 36 25.664062 L 36.074219 25.421875 C 36.117188 25.289062 36.324219 24.632812 36.539062 23.964844 C 36.941406 22.699219 36.957031 22.648438 37 22.6875 C 37.011719 22.703125 37.230469 23.371094 37.484375 24.175781 M 85.859375 36.921875 C 86.058594 37.550781 86.265625 38.207031 86.324219 38.382812 L 86.425781 38.699219 L 89.613281 38.722656 L 88.324219 39.65625 L 87.03125 40.589844 L 87.101562 40.796875 C 87.414062 41.734375 87.972656 43.542969 87.953125 43.558594 C 87.941406 43.570312 87.410156 43.195312 86.773438 42.722656 C 86.132812 42.253906 85.570312 41.84375 85.523438 41.808594 C 85.449219 41.757812 85.253906 41.882812 84.207031 42.660156 C 83.53125 43.160156 82.960938 43.566406 82.941406 43.566406 C 82.921875 43.566406 83.117188 42.902344 83.378906 42.09375 C 83.636719 41.28125 83.839844 40.601562 83.828125 40.582031 C 83.816406 40.566406 83.25 40.152344 82.570312 39.664062 C 81.890625 39.175781 81.335938 38.757812 81.332031 38.738281 C 81.332031 38.71875 82.039062 38.695312 82.902344 38.6875 L 84.46875 38.671875 L 84.609375 38.242188 C 84.6875 38.003906 84.902344 37.335938 85.085938 36.753906 C 85.269531 36.171875 85.4375 35.714844 85.460938 35.738281 C 85.480469 35.761719 85.664062 36.296875 85.859375 36.921875 M 33.996094 37.253906 L 34.472656 38.746094 L 36.054688 38.761719 L 37.636719 38.773438 L 36.371094 39.6875 C 35.671875 40.191406 35.101562 40.621094 35.101562 40.644531 C 35.101562 40.671875 35.308594 41.339844 35.558594 42.132812 C 35.8125 42.925781 36.007812 43.582031 35.996094 43.59375 C 35.984375 43.605469 35.417969 43.207031 34.734375 42.703125 L 33.488281 41.789062 L 32.246094 42.703125 C 31.5625 43.207031 30.992188 43.605469 30.980469 43.59375 C 30.96875 43.582031 31.167969 42.925781 31.417969 42.132812 C 31.671875 41.339844 31.878906 40.671875 31.875 40.644531 C 31.875 40.621094 31.304688 40.191406 30.609375 39.6875 L 29.339844 38.773438 L 30.925781 38.761719 L 32.507812 38.75 L 32.980469 37.253906 C 33.242188 36.429688 33.472656 35.757812 33.488281 35.757812 C 33.507812 35.757812 33.734375 36.429688 33.996094 37.253906 M 37.492188 50.390625 L 37.949219 51.808594 L 39.523438 51.824219 C 40.433594 51.832031 41.09375 51.855469 41.085938 51.882812 C 41.074219 51.90625 40.523438 52.320312 39.859375 52.800781 C 39.195312 53.28125 38.632812 53.691406 38.609375 53.710938 C 38.585938 53.734375 38.78125 54.414062 39.042969 55.226562 C 39.304688 56.039062 39.5 56.703125 39.476562 56.703125 C 39.449219 56.703125 38.886719 56.304688 38.226562 55.816406 C 37.5625 55.328125 37.003906 54.929688 36.980469 54.929688 C 36.957031 54.929688 36.382812 55.339844 35.703125 55.835938 C 35.027344 56.335938 34.464844 56.730469 34.460938 56.710938 C 34.453125 56.695312 34.660156 56.019531 34.917969 55.210938 L 35.386719 53.738281 L 35.28125 53.660156 C 35.222656 53.613281 34.660156 53.207031 34.03125 52.753906 C 33.398438 52.296875 32.882812 51.90625 32.882812 51.878906 C 32.882812 51.855469 33.5625 51.835938 34.445312 51.835938 L 36 51.835938 L 36.359375 50.707031 C 36.558594 50.085938 36.765625 49.429688 36.824219 49.25 C 36.949219 48.847656 36.972656 48.800781 37.007812 48.894531 C 37.023438 48.9375 37.242188 49.609375 37.492188 50.390625 M 82.695312 50.960938 L 82.96875 51.835938 L 84.542969 51.835938 C 85.40625 51.835938 86.113281 51.851562 86.113281 51.875 C 86.113281 51.894531 85.546875 52.320312 84.855469 52.820312 C 84.164062 53.320312 83.597656 53.738281 83.597656 53.753906 C 83.597656 53.765625 83.804688 54.425781 84.058594 55.21875 C 84.308594 56.007812 84.503906 56.671875 84.488281 56.6875 C 84.472656 56.703125 83.914062 56.3125 83.25 55.820312 C 82.582031 55.332031 82.019531 54.929688 81.996094 54.929688 C 81.972656 54.929688 81.398438 55.335938 80.722656 55.835938 C 80.046875 56.335938 79.488281 56.730469 79.480469 56.710938 C 79.472656 56.695312 79.679688 56.019531 79.9375 55.210938 L 80.40625 53.738281 L 80.125 53.535156 C 79.972656 53.421875 79.410156 53.011719 78.875 52.628906 C 78.34375 52.242188 77.894531 51.90625 77.878906 51.882812 C 77.863281 51.855469 78.488281 51.835938 79.433594 51.835938 L 81.019531 51.835938 L 81.097656 51.59375 C 81.140625 51.460938 81.347656 50.804688 81.558594 50.136719 C 81.773438 49.464844 81.960938 48.898438 81.976562 48.871094 C 82.003906 48.820312 82.226562 49.464844 82.695312 50.960938 M 46.851562 59.457031 C 47.035156 60.019531 47.25 60.707031 47.335938 60.976562 L 47.492188 61.46875 L 49.0625 61.484375 L 50.632812 61.496094 L 49.375 62.40625 C 48.683594 62.90625 48.113281 63.316406 48.105469 63.320312 C 48.101562 63.324219 48.308594 64 48.570312 64.820312 C 48.832031 65.640625 49.039062 66.320312 49.03125 66.328125 C 49.023438 66.335938 48.457031 65.933594 47.773438 65.429688 C 47.09375 64.925781 46.523438 64.515625 46.507812 64.515625 C 46.496094 64.515625 45.921875 64.925781 45.238281 65.429688 C 44.554688 65.929688 43.992188 66.335938 43.984375 66.324219 C 43.972656 66.316406 44.179688 65.640625 44.441406 64.820312 C 44.703125 64 44.914062 63.324219 44.90625 63.320312 C 44.902344 63.316406 44.328125 62.90625 43.636719 62.40625 L 42.382812 61.496094 L 43.949219 61.484375 L 45.515625 61.46875 L 45.644531 61.078125 C 45.714844 60.863281 45.933594 60.179688 46.128906 59.558594 C 46.328125 58.9375 46.496094 58.429688 46.507812 58.429688 C 46.515625 58.429688 46.671875 58.890625 46.851562 59.457031 M 72.972656 59.949219 L 73.449219 61.46875 L 75.023438 61.484375 L 76.597656 61.496094 L 75.335938 62.40625 C 74.644531 62.90625 74.078125 63.339844 74.078125 63.367188 C 74.078125 63.394531 74.285156 64.054688 74.535156 64.832031 C 74.785156 65.609375 74.984375 66.265625 74.976562 66.289062 C 74.96875 66.3125 74.40625 65.921875 73.726562 65.421875 C 73.046875 64.925781 72.480469 64.515625 72.464844 64.515625 C 72.453125 64.515625 71.886719 64.925781 71.207031 65.421875 C 70.53125 65.921875 69.96875 66.3125 69.960938 66.289062 C 69.949219 66.265625 70.148438 65.609375 70.398438 64.828125 C 70.652344 64.050781 70.855469 63.390625 70.855469 63.363281 C 70.855469 63.339844 70.289062 62.90625 69.597656 62.40625 L 68.335938 61.496094 L 69.910156 61.472656 L 71.484375 61.445312 L 71.960938 59.9375 C 72.226562 59.109375 72.453125 58.429688 72.46875 58.429688 C 72.480469 58.429688 72.707031 59.113281 72.972656 59.949219 M 59.800781 62.828125 C 59.957031 63.324219 60.171875 63.992188 60.273438 64.3125 L 60.464844 64.894531 L 62.035156 64.910156 C 62.898438 64.917969 63.601562 64.9375 63.601562 64.960938 C 63.601562 64.980469 63.042969 65.398438 62.363281 65.882812 C 61.679688 66.371094 61.117188 66.792969 61.105469 66.824219 C 61.097656 66.851562 61.300781 67.53125 61.5625 68.335938 C 61.882812 69.332031 62.011719 69.789062 61.960938 69.769531 C 61.917969 69.753906 61.351562 69.347656 60.695312 68.863281 C 60.042969 68.382812 59.492188 67.996094 59.472656 68 C 59.453125 68.007812 58.890625 68.414062 58.21875 68.90625 C 57.550781 69.398438 56.992188 69.792969 56.980469 69.777344 C 56.96875 69.765625 57.164062 69.109375 57.414062 68.316406 C 57.667969 67.523438 57.878906 66.859375 57.882812 66.839844 C 57.886719 66.820312 57.3125 66.386719 56.605469 65.875 L 55.320312 64.945312 L 56.914062 64.933594 L 58.507812 64.917969 L 58.769531 64.097656 C 58.910156 63.644531 59.125 62.972656 59.238281 62.601562 C 59.355469 62.234375 59.464844 61.929688 59.484375 61.929688 C 59.5 61.929688 59.644531 62.332031 59.800781 62.828125 "/>
<path style=" stroke:none;fill-rule:evenodd;fill:rgb(23.529412%,38.431373%,66.27451%);fill-opacity:1;" d="M 29.753906 79.921875 C 46.132812 79.929688 72.917969 79.929688 89.28125 79.921875 C 105.640625 79.914062 92.238281 79.910156 59.5 79.910156 C 26.761719 79.910156 13.375 79.914062 29.753906 79.921875 "/>
<path style=" stroke:none;fill-rule:evenodd;fill:rgb(48.627451%,51.764706%,29.803922%);fill-opacity:1;" d="M 71.269531 16.113281 C 71.320312 16.125 71.398438 16.125 71.449219 16.113281 C 71.496094 16.101562 71.457031 16.089844 71.359375 16.089844 C 71.261719 16.089844 71.222656 16.101562 71.269531 16.113281 M 34.445312 25.664062 L 32.859375 25.691406 L 34.429688 25.703125 C 35.4375 25.710938 36.011719 25.695312 36.03125 25.664062 C 36.050781 25.636719 36.054688 25.617188 36.046875 25.625 C 36.039062 25.632812 35.320312 25.648438 34.445312 25.664062 M 39.472656 25.703125 C 40.597656 25.710938 40.988281 25.730469 40.960938 25.773438 C 40.941406 25.808594 40.949219 25.816406 40.984375 25.796875 C 41.167969 25.683594 40.941406 25.664062 39.496094 25.675781 L 37.945312 25.6875 L 39.472656 25.703125 M 86.410156 38.710938 C 86.429688 38.734375 87.148438 38.746094 88.007812 38.738281 L 89.566406 38.722656 L 87.96875 38.699219 C 87.089844 38.683594 86.390625 38.691406 86.410156 38.710938 M 82.148438 38.738281 C 82.585938 38.746094 83.300781 38.746094 83.734375 38.738281 C 84.171875 38.726562 83.816406 38.722656 82.941406 38.722656 C 82.070312 38.722656 81.714844 38.726562 82.148438 38.738281 M 32.191406 38.785156 C 32.269531 38.796875 32.382812 38.796875 32.445312 38.785156 C 32.507812 38.773438 32.445312 38.765625 32.304688 38.765625 C 32.167969 38.765625 32.117188 38.773438 32.191406 38.785156 M 56.957031 64.921875 L 55.371094 64.949219 L 56.941406 64.960938 C 57.945312 64.96875 58.523438 64.953125 58.542969 64.921875 C 58.558594 64.894531 58.566406 64.875 58.558594 64.882812 C 58.550781 64.886719 57.828125 64.90625 56.957031 64.921875 M 61.199219 64.957031 C 61.636719 64.96875 62.351562 64.96875 62.785156 64.957031 C 63.222656 64.949219 62.867188 64.945312 61.992188 64.945312 C 61.121094 64.945312 60.761719 64.949219 61.199219 64.957031 "/>
<path style=" stroke:none;fill-rule:evenodd;fill:rgb(18.431373%,30.980392%,48.235294%);fill-opacity:1;" d="M 78.652344 25.652344 C 79.105469 25.660156 79.828125 25.660156 80.265625 25.652344 C 80.699219 25.644531 80.328125 25.636719 79.441406 25.636719 C 78.554688 25.636719 78.199219 25.644531 78.652344 25.652344 M 83.523438 25.648438 C 84.917969 25.683594 86.117188 25.6875 86.117188 25.652344 C 86.117188 25.628906 85.40625 25.617188 84.542969 25.625 C 83.675781 25.628906 83.21875 25.640625 83.523438 25.648438 M 37.964844 51.847656 C 37.984375 51.871094 38.703125 51.882812 39.5625 51.875 L 41.117188 51.859375 L 39.523438 51.835938 C 38.644531 51.820312 37.941406 51.828125 37.964844 51.847656 M 33.652344 51.875 C 34.089844 51.882812 34.804688 51.882812 35.238281 51.875 C 35.675781 51.863281 35.320312 51.859375 34.445312 51.859375 C 33.574219 51.859375 33.214844 51.863281 33.652344 51.875 M 78.652344 51.875 C 79.105469 51.882812 79.828125 51.882812 80.265625 51.875 C 80.699219 51.863281 80.328125 51.859375 79.441406 51.859375 C 78.554688 51.859375 78.199219 51.863281 78.652344 51.875 M 83.523438 51.871094 C 84.917969 51.90625 86.117188 51.90625 86.117188 51.875 C 86.117188 51.851562 85.40625 51.839844 84.542969 51.847656 C 83.675781 51.851562 83.21875 51.863281 83.523438 51.871094 "/>
</g>
</svg>
